<svg width="308" height="65" viewBox="0 0 308 65" fill="none" xmlns="http://www.w3.org/2000/svg">
<g clip-path="url(#clip0_408_3)">
<path fill-rule="evenodd" clip-rule="evenodd" d="M38.504 48.3135C38.504 41.6679 38.504 34.9254 38.504 34.9254V29.9291C38.504 28.7649 39.4256 27.7948 40.5898 27.7948L58.9741 27.8918L59.4592 30.5112L59.4107 44.2873C59.0711 48.6045 56.8883 50.9329 53.5898 52.9217L35.1084 63.5933C33.9928 64.2724 32.8286 64.6605 31.5674 64.903C39.086 62.1866 38.4554 52.1941 38.504 48.3135Z" fill="url(#paint0_linear_408_3)"/>
<path d="M13.9794 29.0375L30.9794 17.5375L18.4795 8.03748C17.2795 7.63748 10.3128 10.5375 6.97942 12.0375C-0.620583 15.2375 -0.520583 24.3708 0.479417 28.5375L13.9794 29.0375Z" fill="url(#paint1_linear_408_3)"/>
<path fill-rule="evenodd" clip-rule="evenodd" d="M20.7989 48.2165C20.7504 41.5224 20.7989 34.8284 20.7989 34.8284V29.7836C20.7989 28.6194 19.8288 27.6493 18.6646 27.6493L0.280273 27.7948V30.7053L0.328781 44.9665C0.813856 48.2165 2.80266 51.1269 5.6646 52.8247L24.1459 63.4963C25.2616 64.1269 26.4743 64.5635 27.687 64.7575C20.2168 62.0896 20.7989 52.0971 20.7989 48.2165Z" fill="url(#paint2_linear_408_3)"/>
<path fill-rule="evenodd" clip-rule="evenodd" d="M59.4113 43.6082V20.5187C59.2657 16.444 55.9672 13.2425 54.0269 12.1269L35.5456 1.45522C33.8478 0.485075 31.956 0 30.0642 0C28.1725 0 26.2807 0.485075 24.5829 1.45522L6.10156 12.1269C12.165 8.63433 18.0344 10.1866 22.4971 13.0485L44.5195 28.0858C50.1948 31.9664 58.6837 36.2351 59.4113 43.6082Z" fill="url(#paint3_linear_408_3)"/>
<path fill-rule="evenodd" clip-rule="evenodd" d="M26.7656 31.2388C26.7656 30.7052 27.2022 30.2687 27.7843 30.2687H31.9074C32.441 30.2687 32.8776 30.7052 32.8776 31.2388V35.362C32.8776 35.8955 32.441 36.3321 31.9074 36.3321H27.7843C27.2022 36.3321 26.7656 35.8955 26.7656 35.362V31.2388Z" fill="url(#paint4_linear_408_3)"/>
<path fill-rule="evenodd" clip-rule="evenodd" d="M47.9626 44.2388H39.2313H21.1865V40.4067C21.1865 40.6977 21.1865 45.597 21.1865 48.2649C21.235 52.194 20.6529 62.1865 28.1231 64.8544C28.7537 64.9514 29.4328 64.9999 30.0634 64.9999C31.9552 64.9999 33.847 64.5149 35.5447 63.5447L54.0261 52.8731C57.4216 50.9328 59.4104 47.3432 59.4104 43.4141C57.1791 44.2388 52.9104 43.9962 47.9626 44.2388Z" fill="url(#paint5_linear_408_3)"/>
<path d="M82.8222 41H84.2769V51.1214H82.8222V43.3214L77.4547 51.1214H76V41H77.4547V48.8L82.8222 41ZM93.3062 51.1214H91.9518V47.9179H88.1896V51.1214H86.785V43.6H88.1896V46.85H91.9518V43.6H93.3062V51.1214ZM102.035 47.825H101.081V51.1214H99.6769V47.825H98.6736L96.4163 51.1214H94.6606L97.57 47.2214L94.9114 43.6H96.6169L98.7238 46.7107H99.6769V43.6H101.081V46.7107H101.984L104.091 43.6H105.797L103.138 47.2214L106.048 51.1214H104.292L102.035 47.825ZM110.562 51.2607C109.459 51.2607 108.556 50.9357 107.853 50.2393C107.151 49.5893 106.85 48.7071 106.85 47.5464V47.3143C106.85 46.5714 107.001 45.9214 107.302 45.3179C107.603 44.7143 108.054 44.2964 108.606 43.925C109.158 43.6 109.76 43.4607 110.362 43.4607C111.465 43.4607 112.268 43.7857 112.87 44.4357C113.422 45.0393 113.722 45.9679 113.722 47.175V47.7321H108.205C108.255 48.475 108.455 49.0786 108.907 49.5429C109.358 49.9607 109.96 50.1929 110.612 50.1929C111.114 50.1929 111.515 50.1 111.866 49.9143C112.218 49.7286 112.519 49.4964 112.769 49.2179L113.622 49.8214C112.92 50.7964 111.917 51.2607 110.562 51.2607ZM110.362 44.4821C109.81 44.4821 109.358 44.7143 108.957 45.0857C108.606 45.4571 108.355 45.9679 108.255 46.6643H112.318V46.5714C112.318 45.9214 112.117 45.4107 111.766 45.0393C111.415 44.6679 110.964 44.4821 110.362 44.4821ZM121.999 51.1214H120.595V47.9179H116.833V51.1214H115.478V43.6H116.833V46.85H120.595V43.6H121.999V51.1214ZM127.567 51.2607C126.464 51.2607 125.611 50.9357 124.909 50.2393C124.207 49.5893 123.855 48.7071 123.855 47.5464V47.3143C123.855 46.5714 124.006 45.9214 124.307 45.3179C124.608 44.7143 125.059 44.2964 125.611 43.925C126.163 43.6 126.765 43.4607 127.417 43.4607C128.47 43.4607 129.273 43.7857 129.875 44.4357C130.477 45.0393 130.778 45.9679 130.778 47.175V47.7321H125.26C125.26 48.475 125.511 49.0786 125.962 49.5429C126.414 49.9607 126.965 50.1929 127.668 50.1929C128.169 50.1929 128.571 50.1 128.922 49.9143C129.273 49.7286 129.524 49.4964 129.825 49.2179L130.627 49.8214C129.975 50.7964 128.922 51.2607 127.567 51.2607ZM127.417 44.4821C126.865 44.4821 126.364 44.7143 126.012 45.0857C125.611 45.4571 125.36 45.9679 125.31 46.6643H129.373V46.5714C129.323 45.9214 129.122 45.4107 128.771 45.0393C128.47 44.6679 127.969 44.4821 127.417 44.4821ZM139.255 47.4536C139.255 48.5679 138.954 49.4964 138.403 50.1929C137.801 50.9357 137.048 51.2607 136.095 51.2607C135.092 51.2607 134.339 50.9821 133.737 50.3786V54H132.383V43.6H133.637L133.687 44.4357C134.289 43.7857 135.042 43.4607 136.045 43.4607C137.048 43.4607 137.801 43.7857 138.352 44.4821C138.954 45.1321 139.255 46.1071 139.255 47.3143V47.4536ZM137.851 47.3143C137.851 46.4321 137.65 45.7821 137.249 45.2714C136.848 44.8071 136.346 44.5286 135.644 44.5286C134.791 44.5286 134.189 44.9 133.737 45.5964V49.1714C134.189 49.8679 134.791 50.1929 135.644 50.1929C136.346 50.1929 136.848 49.9607 137.249 49.4964C137.65 48.9857 137.851 48.2429 137.851 47.3143ZM147.633 51.1214H146.228V47.9179H142.516V51.1214H141.111V43.6H142.516V46.85H146.228V43.6H147.633V51.1214ZM151.395 46.2H153.502C154.405 46.2 155.157 46.4321 155.709 46.85C156.21 47.3143 156.511 47.8714 156.511 48.6143C156.511 49.4036 156.21 50.0071 155.659 50.425C155.107 50.8893 154.354 51.1214 153.451 51.1214H149.99V43.6H151.395V46.2ZM159.371 51.1214H157.966V43.6H159.371V51.1214ZM151.395 47.2214V50.0536H153.451C153.953 50.0536 154.354 49.9607 154.655 49.6821C154.956 49.45 155.107 49.125 155.107 48.6607C155.107 48.2429 154.956 47.9179 154.655 47.6393C154.405 47.4071 154.003 47.2679 153.502 47.2214H151.395ZM165.19 51.2607C164.086 51.2607 163.183 50.9357 162.481 50.2393C161.829 49.5893 161.478 48.7071 161.478 47.5464V47.3143C161.478 46.5714 161.628 45.9214 161.929 45.3179C162.23 44.7143 162.681 44.2964 163.233 43.925C163.785 43.6 164.387 43.4607 165.039 43.4607C166.093 43.4607 166.895 43.7857 167.497 44.4357C168.049 45.0393 168.35 45.9679 168.35 47.175V47.7321H162.832C162.882 48.475 163.133 49.0786 163.534 49.5429C163.986 49.9607 164.588 50.1929 165.29 50.1929C165.741 50.1929 166.193 50.1 166.494 49.9143C166.845 49.7286 167.146 49.4964 167.397 49.2179L168.25 49.8214C167.597 50.7964 166.544 51.2607 165.19 51.2607ZM165.039 44.4821C164.437 44.4821 163.986 44.7143 163.584 45.0857C163.233 45.4571 162.982 45.9679 162.882 46.6643H166.995V46.5714C166.945 45.9214 166.745 45.4107 166.393 45.0393C166.042 44.6679 165.591 44.4821 165.039 44.4821ZM177.028 50.1929C177.53 50.1929 177.981 50.0536 178.332 49.775C178.734 49.4964 178.934 49.1714 178.934 48.7536H180.289C180.238 49.1714 180.088 49.5893 179.787 49.9607C179.486 50.3786 179.085 50.7036 178.583 50.9357C178.132 51.1679 177.58 51.2607 177.028 51.2607C175.924 51.2607 175.072 50.9357 174.42 50.2393C173.767 49.5429 173.416 48.6143 173.416 47.4071V47.2214C173.416 46.4786 173.567 45.8286 173.868 45.2714C174.119 44.6679 174.57 44.25 175.122 43.925C175.623 43.6 176.276 43.4607 177.028 43.4607C177.931 43.4607 178.683 43.6929 179.285 44.2036C179.887 44.7143 180.238 45.3643 180.289 46.1536H178.934C178.934 45.6893 178.734 45.2714 178.332 44.9929C177.981 44.6679 177.58 44.4821 177.028 44.4821C176.326 44.4821 175.774 44.7143 175.373 45.225C175.022 45.6893 174.821 46.3393 174.821 47.2679V47.5C174.821 48.3821 175.022 49.0321 175.373 49.4964C175.774 49.9607 176.326 50.1929 177.028 50.1929ZM187.111 43.6H188.465V51.1214H187.111V45.6429L183.349 51.1214H181.944V43.6H183.349V49.0786L187.111 43.6ZM193.983 50.1929C194.485 50.1929 194.886 50.0536 195.287 49.775C195.638 49.4964 195.839 49.1714 195.889 48.7536H197.193C197.193 49.1714 197.043 49.5893 196.742 49.9607C196.441 50.3786 196.04 50.7036 195.538 50.9357C195.036 51.1679 194.535 51.2607 193.983 51.2607C192.879 51.2607 191.977 50.9357 191.324 50.2393C190.672 49.5429 190.371 48.6143 190.371 47.4071V47.2214C190.371 46.4786 190.522 45.8286 190.773 45.2714C191.074 44.6679 191.475 44.25 192.027 43.925C192.579 43.6 193.231 43.4607 193.983 43.4607C194.886 43.4607 195.638 43.6929 196.24 44.2036C196.842 44.7143 197.143 45.3643 197.193 46.1536H195.889C195.839 45.6893 195.638 45.2714 195.287 44.9929C194.936 44.6679 194.485 44.4821 193.983 44.4821C193.281 44.4821 192.729 44.7143 192.328 45.225C191.926 45.6893 191.726 46.3393 191.726 47.2679V47.5C191.726 48.3821 191.926 49.0321 192.328 49.4964C192.729 49.9607 193.281 50.1929 193.983 50.1929ZM204.818 44.6214H202.109V51.1214H200.705V44.6214H198.046V43.6H204.818V44.6214ZM208.932 51.2607C207.828 51.2607 206.925 50.9357 206.273 50.2393C205.571 49.5893 205.22 48.7071 205.22 47.5464V47.3143C205.22 46.5714 205.37 45.9214 205.671 45.3179C205.972 44.7143 206.423 44.2964 206.975 43.925C207.527 43.6 208.129 43.4607 208.781 43.4607C209.835 43.4607 210.637 43.7857 211.239 44.4357C211.841 45.0393 212.092 45.9679 212.092 47.175V47.7321H206.624C206.624 48.475 206.875 49.0786 207.326 49.5429C207.778 49.9607 208.33 50.1929 209.032 50.1929C209.483 50.1929 209.935 50.1 210.286 49.9143C210.587 49.7286 210.888 49.4964 211.139 49.2179L211.992 49.8214C211.339 50.7964 210.286 51.2607 208.932 51.2607ZM208.781 44.4821C208.229 44.4821 207.728 44.7143 207.377 45.0857C206.975 45.4571 206.724 45.9679 206.674 46.6643H210.737V46.5714C210.687 45.9214 210.487 45.4107 210.136 45.0393C209.835 44.6679 209.333 44.4821 208.781 44.4821ZM218.412 49.4036L221.171 43.6H222.927V51.1214H221.522V45.6429L218.864 51.1214H217.911L215.252 45.5036V51.1214H213.848V43.6H215.653L218.412 49.4036ZM226.639 46.2H228.746C229.699 46.2 230.401 46.4321 230.953 46.85C231.505 47.3143 231.756 47.8714 231.756 48.6143C231.756 49.4036 231.455 50.0071 230.903 50.425C230.351 50.8893 229.649 51.1214 228.696 51.1214H225.285V43.6H226.639V46.2ZM234.665 51.1214H233.261V43.6H234.665V51.1214ZM226.639 47.2214V50.0536H228.696C229.248 50.0536 229.649 49.9607 229.9 49.6821C230.201 49.45 230.351 49.125 230.351 48.6607C230.351 48.2429 230.201 47.9179 229.95 47.6393C229.649 47.4071 229.248 47.2679 228.746 47.2214H226.639ZM247.557 51.1214H246.152V44.6679H242.39V51.1214H240.986V43.6H247.557V51.1214ZM249.413 47.2679C249.413 46.525 249.564 45.875 249.865 45.2714C250.165 44.7143 250.617 44.25 251.169 43.925C251.721 43.6 252.373 43.4607 253.075 43.4607C254.179 43.4607 255.081 43.7857 255.784 44.5286C256.486 45.225 256.787 46.1536 256.787 47.3607V47.4536C256.787 48.1964 256.636 48.8464 256.336 49.4036C256.035 50.0071 255.633 50.4714 255.031 50.7964C254.479 51.1214 253.827 51.2607 253.125 51.2607C252.022 51.2607 251.119 50.8893 250.416 50.1929C249.764 49.4964 249.413 48.5679 249.413 47.3607V47.2679ZM250.818 47.4536C250.818 48.2893 251.018 48.9393 251.42 49.45C251.821 49.9607 252.423 50.1929 253.125 50.1929C253.827 50.1929 254.379 49.9607 254.78 49.45C255.182 48.9393 255.433 48.1964 255.433 47.2679C255.433 46.4321 255.182 45.7821 254.78 45.2714C254.379 44.7607 253.777 44.4821 253.075 44.4821C252.423 44.4821 251.871 44.7607 251.42 45.2714C251.018 45.7821 250.818 46.4786 250.818 47.4536ZM257.941 50.0536L258.442 49.4964C258.944 48.8464 259.295 47.8714 259.345 46.6179L259.496 43.6H264.713V50.0536H265.766V53.35H264.362V51.1214H258.693V53.35H257.289V50.0536H257.941ZM259.596 50.0536H263.308V44.8071H260.8L260.75 46.5714C260.65 48.0571 260.248 49.2179 259.596 50.0536ZM273.642 47.9179H272.638V51.1214H271.234V43.6H272.638V46.7571H273.541L276.25 43.6H277.956L274.745 47.2214L278.207 51.1214H276.451L273.642 47.9179ZM286.082 43.6V51.1214H284.678V44.6679H281.919L281.768 47.4536C281.668 48.7536 281.417 49.6821 281.066 50.2393C280.665 50.7964 280.063 51.075 279.26 51.1214H278.708V49.9607H279.109C279.561 49.9143 279.862 49.6821 280.063 49.2179C280.263 48.8 280.364 48.0107 280.414 46.8036L280.564 43.6H286.082ZM289.844 46.8036H291.801C291.901 45.7821 292.252 44.9929 292.954 44.3429C293.607 43.7393 294.459 43.4607 295.463 43.4607C296.516 43.4607 297.369 43.7857 298.071 44.4357C298.723 45.0857 299.124 45.9679 299.175 47.0357V47.4536C299.175 48.1964 299.024 48.8464 298.673 49.4036C298.372 50.0071 297.971 50.4714 297.369 50.7964C296.817 51.1214 296.165 51.2607 295.463 51.2607C294.409 51.2607 293.556 50.9357 292.904 50.3321C292.252 49.6821 291.851 48.8464 291.801 47.825H289.844V51.1214H288.44V43.6H289.844V46.8036ZM293.155 47.4536C293.155 48.2893 293.356 48.9393 293.757 49.45C294.208 49.9607 294.76 50.1929 295.463 50.1929C296.165 50.1929 296.717 49.9607 297.168 49.45C297.569 48.9393 297.77 48.1964 297.77 47.2679C297.77 46.4786 297.569 45.7821 297.118 45.2714C296.717 44.7607 296.165 44.4821 295.463 44.4821C294.76 44.4821 294.208 44.7607 293.807 45.2714C293.356 45.7821 293.155 46.4786 293.155 47.4536ZM307 51.1214H305.595V48.3821C304.993 48.5214 304.392 48.6143 303.739 48.6143C302.736 48.6143 301.934 48.3821 301.382 47.8714C300.88 47.4071 300.579 46.7107 300.579 45.8286V43.5536H301.984V45.875C301.984 46.9893 302.586 47.5464 303.739 47.5464C304.392 47.5464 304.993 47.5 305.595 47.3143V43.6H307V51.1214Z" fill="#2B2A29"/>
<path fill-rule="evenodd" clip-rule="evenodd" d="M21.1865 43.8508V44.4329C36.8059 44.3358 53.2014 44.2873 59.4589 43.6567L21.1865 43.8508Z" fill="#FEFEFE"/>
<path d="M84.3047 24.2812H88.1016C88.0391 25.4531 87.7188 26.4883 87.1406 27.3867C86.5703 28.2773 85.7773 28.9766 84.7617 29.4844C83.7461 29.9844 82.5391 30.2344 81.1406 30.2344C80.0234 30.2344 79.0234 30.043 78.1406 29.6602C77.2578 29.2773 76.5078 28.7305 75.8906 28.0195C75.2812 27.3008 74.8125 26.4375 74.4844 25.4297C74.1641 24.4141 74.0039 23.2695 74.0039 21.9961V20.9531C74.0039 19.6797 74.1719 18.5352 74.5078 17.5195C74.8438 16.5039 75.3242 15.6367 75.9492 14.918C76.5742 14.1992 77.3242 13.6484 78.1992 13.2656C79.0742 12.8828 80.0508 12.6914 81.1289 12.6914C82.582 12.6914 83.8086 12.9531 84.8086 13.4766C85.8086 14 86.582 14.7188 87.1289 15.6328C87.6836 16.5469 88.0156 17.5898 88.125 18.7617H84.3164C84.2852 18.0977 84.1602 17.5391 83.9414 17.0859C83.7227 16.625 83.3867 16.2773 82.9336 16.043C82.4805 15.8086 81.8789 15.6914 81.1289 15.6914C80.582 15.6914 80.1016 15.793 79.6875 15.9961C79.2812 16.1992 78.9414 16.5156 78.668 16.9453C78.4023 17.375 78.2031 17.9219 78.0703 18.5859C77.9375 19.2422 77.8711 20.0234 77.8711 20.9297V21.9961C77.8711 22.8945 77.9297 23.6719 78.0469 24.3281C78.1641 24.9844 78.3516 25.5273 78.6094 25.957C78.875 26.3867 79.2148 26.707 79.6289 26.918C80.043 27.1289 80.5469 27.2344 81.1406 27.2344C81.8203 27.2344 82.3867 27.1289 82.8398 26.918C83.293 26.6992 83.6406 26.3711 83.8828 25.9336C84.125 25.4961 84.2656 24.9453 84.3047 24.2812ZM101.672 19.8047V22.7578H92.8359V19.8047H101.672ZM94.043 12.9375V30H90.2227V12.9375H94.043ZM104.309 12.9375V30H100.5V12.9375H104.309ZM118.746 27.0469V30H109.664V27.0469H118.746ZM110.965 12.9375V30H107.145V12.9375H110.965ZM117.574 19.8047V22.6641H109.664V19.8047H117.574ZM118.758 12.9375V15.9023H109.664V12.9375H118.758ZM127.441 22.6289H123.059L123.035 20.0742H126.656C127.297 20.0742 127.816 19.9961 128.215 19.8398C128.621 19.6836 128.918 19.457 129.105 19.1602C129.293 18.8555 129.387 18.4805 129.387 18.0352C129.387 17.5273 129.293 17.1172 129.105 16.8047C128.918 16.4922 128.621 16.2656 128.215 16.125C127.816 15.9766 127.301 15.9023 126.668 15.9023H124.441V30H120.621V12.9375H126.668C127.691 12.9375 128.605 13.0312 129.41 13.2188C130.215 13.4062 130.898 13.6953 131.461 14.0859C132.031 14.4766 132.465 14.9648 132.762 15.5508C133.059 16.1367 133.207 16.8281 133.207 17.625C133.207 18.3203 133.051 18.9688 132.738 19.5703C132.434 20.1719 131.941 20.6602 131.262 21.0352C130.582 21.4102 129.672 21.6133 128.531 21.6445L127.441 22.6289ZM127.289 30H122.086L123.469 27.0469H127.289C127.875 27.0469 128.352 26.9531 128.719 26.7656C129.086 26.5781 129.355 26.3242 129.527 26.0039C129.699 25.6836 129.785 25.3242 129.785 24.9258C129.785 24.457 129.703 24.0508 129.539 23.707C129.383 23.3633 129.133 23.0977 128.789 22.9102C128.453 22.7227 128.004 22.6289 127.441 22.6289H124.02L124.043 20.0742H128.227L129.117 21.082C130.203 21.0586 131.07 21.2344 131.719 21.6094C132.375 21.9766 132.848 22.4609 133.137 23.0625C133.426 23.6641 133.57 24.3008 133.57 24.9727C133.57 26.082 133.332 27.0117 132.855 27.7617C132.379 28.5039 131.672 29.0625 130.734 29.4375C129.805 29.8125 128.656 30 127.289 30Z" fill="#0067A0"/>
<path d="M150.867 25.5C150.867 25.2109 150.824 24.9531 150.738 24.7266C150.652 24.4922 150.496 24.2773 150.27 24.082C150.043 23.8867 149.723 23.6914 149.309 23.4961C148.895 23.293 148.352 23.0859 147.68 22.875C146.914 22.625 146.184 22.3438 145.488 22.0312C144.801 21.7109 144.188 21.3398 143.648 20.918C143.109 20.4961 142.684 20.0039 142.371 19.4414C142.066 18.8789 141.914 18.2227 141.914 17.4727C141.914 16.7461 142.074 16.0898 142.395 15.5039C142.715 14.918 143.164 14.418 143.742 14.0039C144.32 13.582 145 13.2617 145.781 13.043C146.562 12.8164 147.422 12.7031 148.359 12.7031C149.609 12.7031 150.707 12.9258 151.652 13.3711C152.605 13.8086 153.348 14.4258 153.879 15.2227C154.41 16.0117 154.676 16.9297 154.676 17.9766H150.879C150.879 17.5156 150.781 17.1094 150.586 16.7578C150.398 16.3984 150.109 16.1172 149.719 15.9141C149.336 15.7109 148.855 15.6094 148.277 15.6094C147.715 15.6094 147.242 15.6953 146.859 15.8672C146.484 16.0312 146.199 16.2578 146.004 16.5469C145.816 16.8359 145.723 17.1523 145.723 17.4961C145.723 17.7695 145.793 18.0195 145.934 18.2461C146.082 18.4648 146.293 18.6719 146.566 18.8672C146.848 19.0547 147.191 19.2344 147.598 19.4062C148.004 19.5781 148.469 19.7422 148.992 19.8984C149.906 20.1875 150.715 20.5078 151.418 20.8594C152.129 21.2109 152.727 21.6094 153.211 22.0547C153.695 22.5 154.059 23.0039 154.301 23.5664C154.551 24.1289 154.676 24.7656 154.676 25.4766C154.676 26.2344 154.527 26.9062 154.23 27.4922C153.941 28.0781 153.52 28.5781 152.965 28.9922C152.418 29.3984 151.762 29.707 150.996 29.918C150.23 30.1289 149.375 30.2344 148.43 30.2344C147.57 30.2344 146.723 30.125 145.887 29.9062C145.051 29.6797 144.293 29.3359 143.613 28.875C142.941 28.4141 142.402 27.8281 141.996 27.1172C141.598 26.3984 141.398 25.5469 141.398 24.5625H145.219C145.219 25.0781 145.293 25.5156 145.441 25.875C145.59 26.2266 145.801 26.5117 146.074 26.7305C146.355 26.9492 146.695 27.1055 147.094 27.1992C147.492 27.293 147.938 27.3398 148.43 27.3398C149 27.3398 149.461 27.2617 149.812 27.1055C150.172 26.9414 150.438 26.7188 150.609 26.4375C150.781 26.1562 150.867 25.8438 150.867 25.5ZM168.527 27.0469V30H159.445V27.0469H168.527ZM160.746 12.9375V30H156.926V12.9375H160.746ZM167.355 19.8047V22.6641H159.445V19.8047H167.355ZM168.539 12.9375V15.9023H159.445V12.9375H168.539ZM177.129 24.0703H172.84V21.1055H177.129C177.762 21.1055 178.27 21 178.652 20.7891C179.043 20.5781 179.328 20.2891 179.508 19.9219C179.695 19.5469 179.789 19.125 179.789 18.6562C179.789 18.1719 179.695 17.7227 179.508 17.3086C179.328 16.8867 179.043 16.5469 178.652 16.2891C178.27 16.0312 177.762 15.9023 177.129 15.9023H174.223V30H170.402V12.9375H177.129C178.488 12.9375 179.652 13.1836 180.621 13.6758C181.598 14.168 182.344 14.8438 182.859 15.7031C183.383 16.5547 183.645 17.5312 183.645 18.6328C183.645 19.7344 183.383 20.6914 182.859 21.5039C182.344 22.3164 181.598 22.9492 180.621 23.4023C179.652 23.8477 178.488 24.0703 177.129 24.0703ZM193.91 12.9375V30H190.102V12.9375H193.91ZM199.102 12.9375V15.9023H185.016V12.9375H199.102ZM205.055 12.9375V30H201.246V12.9375H205.055ZM211.957 12.9375V30H208.137V12.9375H211.957ZM222.152 12.9375L215.473 21.4688L211.582 25.6875L210.891 22.1367L213.457 18.457L217.465 12.9375H222.152ZM217.723 30L213.012 22.207L215.918 19.9453L222.246 30H217.723Z" fill="#0DB25A"/>
<path d="M243.164 20.9883V27.8672C242.883 28.1875 242.453 28.5312 241.875 28.8984C241.305 29.2656 240.574 29.582 239.684 29.8477C238.793 30.1055 237.73 30.2344 236.496 30.2344C235.379 30.2344 234.363 30.0547 233.449 29.6953C232.535 29.3281 231.75 28.793 231.094 28.0898C230.438 27.3789 229.93 26.5117 229.57 25.4883C229.219 24.4648 229.043 23.293 229.043 21.9727V20.9648C229.043 19.6445 229.219 18.4727 229.57 17.4492C229.922 16.4258 230.418 15.5625 231.059 14.8594C231.699 14.1484 232.461 13.6094 233.344 13.2422C234.227 12.875 235.203 12.6914 236.273 12.6914C237.797 12.6914 239.043 12.9375 240.012 13.4297C240.98 13.9141 241.715 14.5859 242.215 15.4453C242.723 16.3047 243.035 17.293 243.152 18.4102H239.473C239.395 17.8398 239.238 17.3477 239.004 16.9336C238.777 16.5195 238.453 16.2031 238.031 15.9844C237.609 15.7578 237.062 15.6445 236.391 15.6445C235.852 15.6445 235.363 15.7578 234.926 15.9844C234.496 16.2031 234.133 16.5352 233.836 16.9805C233.539 17.4258 233.312 17.9805 233.156 18.6445C233 19.3008 232.922 20.0664 232.922 20.9414V21.9727C232.922 22.8477 233 23.6172 233.156 24.2812C233.32 24.9453 233.559 25.5 233.871 25.9453C234.184 26.3828 234.578 26.7148 235.055 26.9414C235.539 27.168 236.102 27.2812 236.742 27.2812C237.242 27.2812 237.664 27.2422 238.008 27.1641C238.352 27.0781 238.633 26.9727 238.852 26.8477C239.07 26.7148 239.234 26.5938 239.344 26.4844V23.6484H236.309V20.9883H243.164ZM245.777 12.9375H252.328C253.633 12.9375 254.762 13.1328 255.715 13.5234C256.676 13.9141 257.414 14.4922 257.93 15.2578C258.445 16.0234 258.703 16.9688 258.703 18.0938C258.703 19.0312 258.551 19.8281 258.246 20.4844C257.941 21.1406 257.512 21.6836 256.957 22.1133C256.41 22.543 255.77 22.8906 255.035 23.1562L253.793 23.8359H248.215L248.191 20.8711H252.34C252.91 20.8711 253.383 20.7695 253.758 20.5664C254.133 20.3633 254.414 20.0781 254.602 19.7109C254.797 19.3359 254.895 18.8984 254.895 18.3984C254.895 17.8828 254.797 17.4375 254.602 17.0625C254.406 16.6875 254.117 16.4023 253.734 16.207C253.359 16.0039 252.891 15.9023 252.328 15.9023H249.598V30H245.777V12.9375ZM255.223 30L251.391 22.418L255.422 22.4062L259.312 29.8242V30H255.223ZM275.52 21.0938V21.8555C275.52 23.1523 275.34 24.3164 274.98 25.3477C274.629 26.3789 274.125 27.2578 273.469 27.9844C272.82 28.7109 272.047 29.2695 271.148 29.6602C270.258 30.043 269.27 30.2344 268.184 30.2344C267.098 30.2344 266.105 30.043 265.207 29.6602C264.309 29.2695 263.527 28.7109 262.863 27.9844C262.207 27.2578 261.699 26.3789 261.34 25.3477C260.98 24.3164 260.801 23.1523 260.801 21.8555V21.0938C260.801 19.7969 260.98 18.6328 261.34 17.6016C261.699 16.5625 262.203 15.6797 262.852 14.9531C263.508 14.2266 264.285 13.6719 265.184 13.2891C266.082 12.8984 267.074 12.7031 268.16 12.7031C269.246 12.7031 270.238 12.8984 271.137 13.2891C272.035 13.6719 272.809 14.2266 273.457 14.9531C274.113 15.6797 274.621 16.5625 274.98 17.6016C275.34 18.6328 275.52 19.7969 275.52 21.0938ZM271.664 21.8555V21.0703C271.664 20.2031 271.586 19.4375 271.43 18.7734C271.273 18.1016 271.047 17.5391 270.75 17.0859C270.453 16.6328 270.086 16.293 269.648 16.0664C269.211 15.832 268.715 15.7148 268.16 15.7148C267.582 15.7148 267.078 15.832 266.648 16.0664C266.219 16.293 265.855 16.6328 265.559 17.0859C265.27 17.5391 265.047 18.1016 264.891 18.7734C264.742 19.4375 264.668 20.2031 264.668 21.0703V21.8555C264.668 22.7148 264.742 23.4805 264.891 24.1523C265.047 24.8164 265.273 25.3789 265.57 25.8398C265.867 26.3008 266.23 26.6484 266.66 26.8828C267.098 27.1172 267.605 27.2344 268.184 27.2344C268.738 27.2344 269.23 27.1172 269.66 26.8828C270.098 26.6484 270.465 26.3008 270.762 25.8398C271.059 25.3789 271.281 24.8164 271.43 24.1523C271.586 23.4805 271.664 22.7148 271.664 21.8555ZM287.203 12.9375H291.023V24.1406C291.023 25.4688 290.742 26.5859 290.18 27.4922C289.625 28.3984 288.852 29.082 287.859 29.543C286.867 30.0039 285.719 30.2344 284.414 30.2344C283.102 30.2344 281.945 30.0039 280.945 29.543C279.953 29.082 279.172 28.3984 278.602 27.4922C278.039 26.5859 277.758 25.4688 277.758 24.1406V12.9375H281.59V24.1406C281.59 24.875 281.699 25.4766 281.918 25.9453C282.145 26.4062 282.469 26.7461 282.891 26.9648C283.312 27.1758 283.82 27.2812 284.414 27.2812C285.008 27.2812 285.512 27.1758 285.926 26.9648C286.348 26.7461 286.664 26.4062 286.875 25.9453C287.094 25.4766 287.203 24.875 287.203 24.1406V12.9375ZM300.48 24.0703H296.191V21.1055H300.48C301.113 21.1055 301.621 21 302.004 20.7891C302.395 20.5781 302.68 20.2891 302.859 19.9219C303.047 19.5469 303.141 19.125 303.141 18.6562C303.141 18.1719 303.047 17.7227 302.859 17.3086C302.68 16.8867 302.395 16.5469 302.004 16.2891C301.621 16.0312 301.113 15.9023 300.48 15.9023H297.574V30H293.754V12.9375H300.48C301.84 12.9375 303.004 13.1836 303.973 13.6758C304.949 14.168 305.695 14.8438 306.211 15.7031C306.734 16.5547 306.996 17.5312 306.996 18.6328C306.996 19.7344 306.734 20.6914 306.211 21.5039C305.695 22.3164 304.949 22.9492 303.973 23.4023C303.004 23.8477 301.84 24.0703 300.48 24.0703Z" fill="#FFB306"/>
</g>
<defs>
<linearGradient id="paint0_linear_408_3" x1="34.9629" y1="36.2351" x2="55.4331" y2="45.6941" gradientUnits="userSpaceOnUse">
<stop stop-color="#006838"/>
<stop offset="0.0392157" stop-color="#006838"/>
<stop offset="1" stop-color="#0DB25A"/>
</linearGradient>
<linearGradient id="paint1_linear_408_3" x1="15.4897" y1="8" x2="15.4897" y2="29.0375" gradientUnits="userSpaceOnUse">
<stop stop-color="#0067A0"/>
<stop offset="1" stop-color="#2194CC"/>
</linearGradient>
<linearGradient id="paint2_linear_408_3" x1="3.43326" y1="36.2351" x2="22.3512" y2="45.6941" gradientUnits="userSpaceOnUse">
<stop stop-color="#006838"/>
<stop offset="1" stop-color="#0DB25A"/>
</linearGradient>
<linearGradient id="paint3_linear_408_3" x1="4.98589" y1="21.7313" x2="56.9374" y2="21.7313" gradientUnits="userSpaceOnUse">
<stop stop-color="#27AAE1"/>
<stop offset="0.760784" stop-color="#1C80BA"/>
<stop offset="1" stop-color="#0067A0"/>
</linearGradient>
<linearGradient id="paint4_linear_408_3" x1="28.6574" y1="37.8358" x2="30.2097" y2="25.2239" gradientUnits="userSpaceOnUse">
<stop stop-color="#115593"/>
<stop offset="0.290196" stop-color="#0C88C6"/>
<stop offset="0.94902" stop-color="#06BBF9"/>
<stop offset="1" stop-color="#06BBF9"/>
</linearGradient>
<linearGradient id="paint5_linear_408_3" x1="22.8843" y1="53.6007" x2="61.5932" y2="50.4477" gradientUnits="userSpaceOnUse">
<stop stop-color="#006838"/>
<stop offset="0.290196" stop-color="#29A954"/>
<stop offset="0.741176" stop-color="#3BC661"/>
<stop offset="1" stop-color="#0DB25A"/>
</linearGradient>
<clipPath id="clip0_408_3">
<rect width="308" height="65" fill="white"/>
</clipPath>
</defs>
</svg>
