<svg width="218" height="558" viewBox="0 0 218 558" fill="none" xmlns="http://www.w3.org/2000/svg">
<path d="M86.3809 505.728C86.3809 505.728 78.8928 517.12 72.7846 521.932C66.6763 526.745 52.3732 533.711 48.3852 536.891C44.3972 540.072 46.1472 542.983 47.527 544.363C48.9068 545.742 67.3326 546.769 77.3616 546.786C87.3905 546.803 105.53 542.528 105.53 542.528C105.53 542.528 113.523 543.807 115.626 542.798C117.73 541.788 118.992 539.432 119.261 535.949C119.53 532.466 118.42 512.391 118.42 512.391L86.3809 505.728Z" fill="white" stroke="#343232" stroke-linecap="round" stroke-linejoin="round"/>
<path d="M107.886 537.161C100.078 538.423 98.5467 540.19 83.4527 542.445C71.0343 544.312 52.6254 542.024 45.9282 540.762C45.9455 541.423 46.0959 542.073 46.3706 542.675C46.6453 543.276 47.0385 543.816 47.5268 544.262C48.9066 545.658 67.3323 546.668 77.3613 546.685C87.3903 546.702 105.53 542.428 105.53 542.428C105.53 542.428 113.523 543.707 115.626 542.697C117.73 541.687 118.907 539.432 119.244 535.966C115.439 536.156 111.647 536.554 107.886 537.161Z" fill="#343232" stroke="#343232" stroke-linecap="round" stroke-linejoin="round"/>
<path d="M92.8766 514.158C92.8766 514.158 84.2275 510.288 78.4053 516.783" stroke="#343232" stroke-width="2" stroke-linecap="round" stroke-linejoin="round"/>
<path d="M83.0156 510.894C83.0156 510.894 89.7465 516.093 88.7874 521.629" stroke="#343232" stroke-width="2" stroke-linecap="round" stroke-linejoin="round"/>
<path d="M86.4142 520.165C86.4142 520.165 79.6833 517.002 74.9717 522.403" stroke="#343232" stroke-width="2" stroke-linecap="round" stroke-linejoin="round"/>
<path d="M78.6567 517.49C78.6567 517.49 83.89 521.781 83.1496 526.374" stroke="#343232" stroke-width="2" stroke-linecap="round" stroke-linejoin="round"/>
<path d="M81.4165 526.274C81.4165 526.274 75.1231 523.295 65.2119 526.795" stroke="#343232" stroke-width="2" stroke-linecap="round" stroke-linejoin="round"/>
<path d="M73.5418 523.564C74.0111 524.046 74.3655 524.627 74.5785 525.264C74.7915 525.902 74.8576 526.579 74.7718 527.246C74.6861 527.913 74.4506 528.552 74.0832 529.115C73.7158 529.678 73.2257 530.15 72.6499 530.497" stroke="#343232" stroke-width="2" stroke-linecap="round" stroke-linejoin="round"/>
<path d="M70.2099 249.955C70.2099 249.955 69.2508 333.653 71.7748 359.819C74.2989 385.986 79.2797 428.104 83.436 454.27C87.5923 480.436 85.1188 494.756 85.1188 494.756C85.1188 494.756 82.4096 493.915 82.6284 497.499C82.8471 501.083 83.7894 508.235 83.7894 508.235C88.8863 510.743 94.2407 512.689 99.7584 514.04C106.116 515.303 112.578 515.962 119.059 516.009C119.059 516.009 119.598 501.42 119.732 493.982C119.867 486.545 119.732 481.042 119.732 481.042L121.23 398.168C121.23 398.168 134.304 488.496 135.028 493.73C135.752 498.963 132.706 502.53 133.177 506.115C133.648 509.699 135.163 517.406 135.163 517.406C135.163 517.406 143.156 511.634 151.822 514.141C158.014 516.102 163.991 518.69 169.658 521.865C169.658 521.865 171.055 520.182 172.839 511.97C174.622 503.759 172.839 498.206 172.654 492.148C172.468 486.09 169.44 397.697 170.029 395.493C170.618 393.289 174.269 311.795 174.269 311.795C174.269 311.795 177.315 279.318 176.692 268.566C176.165 261.173 175.205 253.819 173.815 246.539C173.815 246.539 123.922 248.659 99.4218 248.626C74.9215 248.592 69.7388 247.751 69.7388 247.751L70.2099 249.955Z" fill="#0067A0" stroke="#343232" stroke-linecap="round" stroke-linejoin="round"/>
<path d="M173.781 246.539C173.781 246.539 123.889 248.659 99.3887 248.626C74.8884 248.592 69.7056 247.751 69.7056 247.751L70.2104 249.955C70.2104 249.955 70.2104 252.479 70.2104 256.804C74.9388 258.217 86.8693 260.472 114.213 259.933C146.976 259.294 168.784 255.188 175.077 253.842C174.37 249.517 173.781 246.539 173.781 246.539Z" fill="#343232" stroke="#343232" stroke-linecap="round" stroke-linejoin="round"/>
<path d="M110.04 261.297L96.3936 261.28L96.5281 253.657L110.175 253.691L110.04 261.297Z" fill="white" stroke="#343232" stroke-linecap="round" stroke-linejoin="round"/>
<path d="M105.446 303.583L115.155 310.869C115.155 310.869 117.915 369.528 121.213 398.168" stroke="#343232" stroke-linecap="round" stroke-linejoin="round"/>
<path d="M98.2271 298.182L101.441 300.588" stroke="#343232" stroke-linecap="round" stroke-linejoin="round"/>
<path d="M167.976 462.936C168.077 464.955 168.127 466.89 168.144 468.724" stroke="#343232" stroke-linecap="round" stroke-linejoin="round"/>
<path d="M168.262 337.81C166.866 361.889 165.233 388.291 164.257 397.681C162.659 412.825 166.075 437.006 167.539 456.172" stroke="#343232" stroke-linecap="round" stroke-linejoin="round"/>
<path d="M170.786 291.972C170.786 291.972 169.776 311.172 168.498 333.468" stroke="#343232" stroke-linecap="round" stroke-linejoin="round"/>
<path d="M138.377 261.078C138.377 261.078 138.377 273.732 138.478 286.133" stroke="#343232" stroke-linecap="round" stroke-linejoin="round"/>
<path d="M141.373 261.078L144.923 275.684" stroke="#343232" stroke-linecap="round" stroke-linejoin="round"/>
<path d="M78.1867 261.246L74.855 279.975" stroke="#343232" stroke-linecap="round" stroke-linejoin="round"/>
<path d="M81.4511 261.532L80.7275 271.174" stroke="#343232" stroke-linecap="round" stroke-linejoin="round"/>
<path d="M101.038 262.39C101.038 262.39 99.4894 288.54 100.819 290.475C102.282 292.339 103.885 294.088 105.615 295.708" stroke="#343232" stroke-linecap="round" stroke-linejoin="round"/>
<path d="M164.308 284.602C165.943 286.252 167.768 287.704 169.743 288.926" stroke="#343232" stroke-linecap="round" stroke-linejoin="round"/>
<path d="M154.767 258.352C154.396 266.74 156.888 275.006 161.834 281.792" stroke="#343232" stroke-linecap="round" stroke-linejoin="round"/>
<path d="M93.0277 111.08C93.0277 111.08 59.7268 125.232 59.2893 127.302C58.8518 129.371 57.7748 211.723 57.7748 211.723C57.7748 211.723 37.8179 211.269 35.5967 221.147C33.3755 231.024 38.5414 238.462 47.0392 242.181C55.5369 245.899 66.2221 240.145 66.2221 240.145C66.2221 240.145 63.6643 246.724 65.2461 249.198C66.8278 251.671 71.287 252.916 72.5154 252.916C73.7438 252.916 107.112 254.212 129.93 253.842C152.747 253.472 164.173 251.099 167.942 246.909C171.711 242.719 168.296 227.541 168.296 227.541H183.776C183.776 227.541 183.154 239.488 197.777 241.979C212.399 244.469 221.217 229.241 214.385 202.048C207.553 174.855 182.716 127.874 178.728 122.96C174.74 118.047 143.492 105.578 143.492 105.578L93.0277 111.08Z" fill="white" stroke="#343232" stroke-linecap="round" stroke-linejoin="round"/>
<path d="M179.317 215.443C179.317 215.443 195.404 199.76 205.416 203.091" stroke="#343232" stroke-linecap="round" stroke-linejoin="round"/>
<path d="M181.791 209.654C181.791 209.654 190.423 199.204 196.935 198.397" stroke="#343232" stroke-linecap="round" stroke-linejoin="round"/>
<path d="M66.2222 240.144L66.6765 214.433" stroke="#343232" stroke-linecap="round" stroke-linejoin="round"/>
<path d="M100.247 119.208L105.396 130.028L95.4678 236.157L104.016 251.015L113.944 233.75L109.905 131.105L116.3 118.165L107.937 106.806L100.247 119.208Z" fill="#343232" stroke="#343232" stroke-linecap="round" stroke-linejoin="round"/>
<path d="M138.242 56.2074L137.502 96.8786L109.266 113.588L96.8643 100.85L97.0999 88.1116C97.0999 88.1116 100.684 93.3953 111.807 89.3737C122.93 85.352 126.682 82.2558 127.742 74.2292C128.802 66.2027 128.348 41.0125 128.348 41.0125H139.403L138.242 56.2074Z" fill="white" stroke="#343232" stroke-linecap="round" stroke-linejoin="round"/>
<path d="M131.225 71.8229H137.956L138.242 56.2073L139.437 40.9956L130.552 40.9788L131.225 71.8229Z" fill="#343232" stroke="#343232" stroke-linecap="round" stroke-linejoin="round"/>
<path d="M141.877 42.8969L141.608 58.0413C141.224 58.8371 140.658 59.5317 139.957 60.0694C139.255 60.6071 138.438 60.9729 137.569 61.1375C135.531 61.0992 133.575 60.3218 132.067 58.95L132.37 42.8127L141.877 42.8969Z" fill="white" stroke="#343232" stroke-linecap="round" stroke-linejoin="round"/>
<path d="M108.879 97.9721C105.9 97.9619 102.953 97.3562 100.211 96.1905C97.4694 95.0248 94.9885 93.3227 92.9143 91.1842C90.84 89.0457 89.2144 86.514 88.1329 83.7381C87.0514 80.9621 86.5358 77.9979 86.6166 75.0199L87.2392 40.3391H132.672L132.05 75.0199C131.975 81.1217 129.503 86.9491 125.167 91.2436C120.832 95.538 114.981 97.9549 108.879 97.9721Z" fill="white" stroke="#343232" stroke-linecap="round" stroke-linejoin="round"/>
<path d="M107.533 97.9724H110.225C115.94 97.9336 121.412 95.6599 125.472 91.6378C129.532 87.6157 131.857 82.1646 131.949 76.4505L132.588 40.4067H117.949V43.503C117.932 44.5784 118.163 45.6434 118.624 46.6152C119.085 47.587 119.764 48.4394 120.607 49.1064C123.62 51.8997 126.648 55.0127 126.648 55.0127C126.648 55.0127 127.305 69.6018 124.747 75.2053C122.189 80.8087 116.704 77.9817 116.704 77.9817C116.704 77.9817 109.451 69.2148 100.28 69.5682C97.6434 69.6435 95.055 70.2957 92.6973 71.4789C90.3396 72.6622 88.2698 74.3477 86.6335 76.4168C86.5664 79.2107 87.0563 81.99 88.0747 84.5926C89.093 87.1952 90.6194 89.569 92.5648 91.5754C94.5101 93.5819 96.8356 95.1809 99.4055 96.2792C101.975 97.3775 104.738 97.9531 107.533 97.9724Z" fill="#343232" stroke="#343232" stroke-linecap="round" stroke-linejoin="round"/>
<path d="M98.0755 52.7239L96.5273 70.426L106.102 67.6327" stroke="#343232" stroke-linecap="round" stroke-linejoin="round"/>
<path d="M93.3643 75.6931C93.3643 75.6931 96.9316 81.9023 109.922 76.3326" stroke="white" stroke-linecap="round" stroke-linejoin="round"/>
<path d="M110.007 55.3826C110.007 56.8466 109.199 58.0244 108.324 58.0244C107.449 58.0244 106.641 56.8297 106.641 55.3826C106.641 53.9355 107.449 52.7407 108.324 52.7407C109.199 52.7407 110.023 53.9186 110.007 55.3826Z" fill="#343232"/>
<path d="M94.3747 55.3491C94.3747 56.8131 93.567 57.991 92.692 57.991C91.817 57.991 91.0093 56.8131 91.0093 55.3491C91.0093 53.8852 91.817 52.7073 92.692 52.7073C93.567 52.7073 94.3915 53.902 94.3747 55.3491Z" fill="#343232"/>
<path d="M104.605 48.0797C104.605 48.0797 111.336 44.9835 115.627 50.2672" stroke="#343232" stroke-linecap="round" stroke-linejoin="round"/>
<path d="M96.8635 48.9886C96.8635 48.9886 91.0918 45.2698 89.7793 49.6112" stroke="#343232" stroke-linecap="round" stroke-linejoin="round"/>
<path d="M98.547 5.12024C98.547 5.12024 90.1335 8.63709 87.5757 14.9641C85.018 21.2911 84.2944 43.0823 84.2944 43.0823C84.2944 43.0823 68.5779 46.2289 71.001 46.5823C73.4241 46.9357 151.031 46.7169 151.031 46.7169C148.658 42.4933 147.262 43.1832 146.622 39.6664C145.983 36.1495 145.613 18.5651 142.264 11.5314C138.915 4.49763 113.691 -4.33662 98.547 5.12024Z" fill="#FFB306" stroke="#343232" stroke-linecap="round" stroke-linejoin="round"/>
<path d="M110.579 4.44702C109.078 5.02603 107.635 5.74727 106.271 6.60089C104.491 7.81217 103.077 9.48832 102.182 11.4471C102.182 11.4471 113.12 11.7332 113.036 17.1347C112.951 22.5362 112.581 42.2576 112.581 42.2576" stroke="#343232" stroke-linecap="round" stroke-linejoin="round"/>
<path d="M96.6452 97.7363L109.939 109.869L138.208 92.217L143.492 105.578L121.28 127.891L109.266 113.588L96.4601 124.744L93.0273 111.08L96.6452 97.7363Z" fill="white" stroke="#343232" stroke-linecap="round" stroke-linejoin="round"/>
<path d="M76.0157 185.255C76.0157 185.255 84.6986 201.51 90.5712 208.123C96.4439 214.736 99.1699 215.022 99.1699 215.022L83.4029 217.445L71.2705 179.702L76.0157 185.255Z" stroke="#343232" stroke-linecap="round" stroke-linejoin="round"/>
<path d="M1 145.475L43.3707 227.878L91.1262 222.729L57.7411 140.343L1 145.475Z" fill="#343232" stroke="#343232" stroke-linecap="round" stroke-linejoin="round"/>
<path d="M24.7594 207.45C24.7594 207.45 21.394 208.947 21.5118 211.303C21.6296 213.659 21.8147 214.786 23.733 214.366C25.6513 213.945 35.2764 208.173 37.1947 206.474C39.113 204.774 40.5601 203.108 38.1033 203.108C35.6466 203.108 28.8821 205.312 24.7594 207.45Z" fill="white" stroke="#343232" stroke-linecap="round" stroke-linejoin="round"/>
<path d="M24.2554 214.349C24.2554 214.349 24.7097 220.003 25.9381 220.541C27.1665 221.08 39.8036 213.272 41.9575 211.673C44.1114 210.075 44.6499 208.644 43.0849 207.752C41.52 206.861 31.0367 211.656 30.1449 212.01L24.2554 214.349Z" fill="white" stroke="#343232" stroke-linecap="round" stroke-linejoin="round"/>
<path d="M25.9209 220.541C27.0164 222.11 28.2929 223.545 29.7238 224.815C30.9354 225.539 43.0678 217.361 44.4981 215.762C45.9284 214.164 45.9789 212.027 44.9356 211.673C43.9462 211.483 42.9297 211.483 41.9403 211.673C41.9403 211.673 29.1181 218.943 25.9209 220.541Z" fill="white" stroke="#343232" stroke-linecap="round" stroke-linejoin="round"/>
<path d="M29.7241 224.815C30.7594 225.889 32.0015 226.742 33.3756 227.322C35.0583 227.861 42.2267 224.479 44.7507 221.635C47.2748 218.791 43.2363 217.714 43.2363 217.714C43.2363 217.714 32.0294 223.94 29.7241 224.815Z" fill="white" stroke="#343232" stroke-linecap="round" stroke-linejoin="round"/>
<path d="M24.7764 151.213C25.1466 151.687 25.3199 152.286 25.2603 152.884C25.2008 153.483 24.913 154.035 24.4567 154.427C24.1999 154.577 23.9159 154.674 23.6213 154.712C23.3266 154.751 23.0272 154.731 22.7406 154.652C22.4539 154.574 22.1858 154.439 21.9517 154.256C21.7176 154.073 21.5224 153.845 21.3773 153.586C21.0072 153.112 20.8338 152.513 20.8933 151.915C20.9529 151.316 21.2407 150.764 21.697 150.372C21.9544 150.225 22.2382 150.13 22.5324 150.092C22.8265 150.055 23.1252 150.076 23.4112 150.154C23.6973 150.232 23.965 150.366 24.1993 150.548C24.4335 150.729 24.6297 150.956 24.7764 151.213Z" fill="white"/>
<path d="M43.6907 148.672C44.0649 149.145 44.2408 149.744 44.1812 150.344C44.1215 150.944 43.8309 151.497 43.371 151.886C43.1149 152.033 42.8323 152.128 42.5395 152.165C42.2466 152.202 41.9493 152.181 41.6646 152.103C41.3799 152.025 41.1135 151.891 40.8808 151.709C40.648 151.528 40.4536 151.302 40.3085 151.045C39.9383 150.571 39.7649 149.972 39.8245 149.374C39.884 148.775 40.1718 148.223 40.6281 147.831C40.8836 147.682 41.1664 147.585 41.4597 147.547C41.7531 147.508 42.0511 147.529 42.3364 147.607C42.6217 147.686 42.8885 147.82 43.121 148.003C43.3536 148.186 43.5473 148.413 43.6907 148.672Z" fill="white"/>
<path d="M165.99 147.41C164.055 154.292 161.817 162.857 161.598 166.677C161.194 173.56 179.233 215.476 179.233 215.476L183.776 227.608" fill="white"/>
<path d="M165.99 147.41C164.055 154.292 161.817 162.857 161.598 166.677C161.194 173.56 179.233 215.476 179.233 215.476L183.776 227.608" stroke="#343232" stroke-linecap="round" stroke-linejoin="round"/>
<path d="M168.935 137.499C168.935 137.499 168.262 139.636 167.336 142.783L168.935 137.499Z" fill="white"/>
<path d="M168.935 137.499C168.935 137.499 168.262 139.636 167.336 142.783" stroke="#343232" stroke-linecap="round" stroke-linejoin="round"/>
<path d="M185.224 215.762C185.224 215.762 192.055 214.685 194.967 219.127C197.878 223.57 197.221 230.688 194.428 234.541C191.635 238.395 186.502 235.635 186.502 235.635C187.838 229.014 187.396 222.157 185.224 215.762Z" fill="white" stroke="#343232" stroke-linecap="round" stroke-linejoin="round"/>
<path d="M139.605 177.649C139.605 177.649 137.552 170.766 148.019 166.375C158.485 161.983 165.755 164.473 165.906 170.8C163.757 174.524 160.708 177.648 157.038 179.887C151.216 183.168 141.709 181.788 139.605 177.649Z" fill="white" stroke="#343232" stroke-linecap="round" stroke-linejoin="round"/>
<path d="M194.058 254.835L204.053 274.943L197.726 278.511L194.058 254.835Z" fill="white" stroke="#343232" stroke-linecap="round" stroke-linejoin="round"/>
<path d="M131.495 174.048L174.118 288.472C175.738 290.271 177.757 291.664 180.013 292.541C182.269 293.418 184.699 293.753 187.108 293.521C192.056 293.218 196.447 289.718 199.325 286.79C200.42 285.667 201.187 284.266 201.543 282.738C201.899 281.211 201.83 279.615 201.344 278.124L165.856 170.8C165.856 170.8 144.906 186.197 131.495 174.048Z" fill="white" stroke="#343232" stroke-linecap="round" stroke-linejoin="round"/>
<path d="M187.125 216.267C187.125 216.267 178.476 212.396 175.75 212.396C173.024 212.396 158.721 220.911 155.675 223.099C152.63 225.286 152.899 226.464 153.993 226.683C155.087 226.901 156.433 227.238 156.433 227.238C156.433 227.238 152.832 231.091 153.892 232.74C154.952 234.39 158.216 234.12 158.216 234.12C158.216 234.12 155.709 237.149 158.418 237.974C160.46 238.539 162.55 238.911 164.661 239.084C164.661 239.084 160 241.558 163.786 242.938C167.572 244.318 180.731 239.387 185.661 237.469C190.592 235.551 190.71 231.428 190.71 225.084C190.71 218.74 187.125 216.267 187.125 216.267Z" fill="white" stroke="#343232" stroke-linecap="round" stroke-linejoin="round"/>
<path d="M156.416 227.238C156.416 227.238 169.877 220.507 172.721 219.918C174.181 219.588 175.668 219.391 177.163 219.329" stroke="#343232" stroke-miterlimit="10"/>
<path d="M158.199 234.12C158.199 234.12 169.305 229.375 173.461 228.584C177.618 227.793 178.796 227.592 178.796 227.592" stroke="#343232" stroke-miterlimit="10"/>
<path d="M164.644 239.085C164.644 239.085 175.565 237.234 180.243 234.255" stroke="#343232" stroke-miterlimit="10"/>
<path d="M135.146 517.406C135.146 517.406 131.579 530.144 130.3 531.911C129.021 533.678 120.54 544.312 120.473 548.115C120.406 551.918 123.115 554.711 129.862 556.243C136.61 557.774 147.127 558.312 155.473 554.56C163.82 550.808 167.589 549.512 169.709 543.673C171.829 537.834 170.416 518.314 170.416 518.314C170.416 518.314 144.317 499.115 135.146 517.406Z" fill="white" stroke="#343232" stroke-linecap="round" stroke-linejoin="round"/>
<path d="M169.709 543.639C170.526 540.486 170.906 537.236 170.837 533.98C169.081 536.745 167.124 539.378 164.981 541.855C160.875 546.415 153.774 551.48 140.211 552.456C133.225 553.082 126.27 550.957 120.827 546.533C120.622 547.037 120.503 547.572 120.473 548.115C120.473 551.918 123.115 554.711 129.863 556.242C136.61 557.774 147.127 558.312 155.474 554.56C163.82 550.807 167.539 549.461 169.709 543.639Z" fill="#343232" stroke="#343232" stroke-linecap="round" stroke-linejoin="round"/>
<path d="M153.505 513.081C153.505 513.081 142.096 512.526 138.512 519.24" stroke="#343232" stroke-width="2" stroke-linecap="round" stroke-linejoin="round"/>
<path d="M141.019 513.333C141.019 513.333 150.812 515.504 152.327 520.064" stroke="#343232" stroke-width="2" stroke-linecap="round" stroke-linejoin="round"/>
<path d="M151.233 521.411C151.233 521.411 139.807 520.855 136.24 527.569" stroke="#343232" stroke-width="2" stroke-linecap="round" stroke-linejoin="round"/>
<path d="M138.73 521.663C138.73 521.663 148.523 523.834 150.038 528.394" stroke="#343232" stroke-width="2" stroke-linecap="round" stroke-linejoin="round"/>
<path d="M149.029 529.74C149.029 529.74 137.603 529.184 134.036 535.898" stroke="#343232" stroke-width="2" stroke-linecap="round" stroke-linejoin="round"/>
<path d="M136.459 529.992C136.459 529.992 146.252 532.146 147.767 536.723" stroke="#343232" stroke-width="2" stroke-linecap="round" stroke-linejoin="round"/>
</svg>
