<svg width="38" height="58" viewBox="0 0 38 58" fill="none" xmlns="http://www.w3.org/2000/svg">
<path d="M4.27287 1L33.5588 1C34.4868 1.03498 35.3649 1.42965 36.0071 2.10049C36.6494 2.77133 37.0054 3.66573 36.9999 4.59442L36.3835 18.0693L36.3835 54.1971C36.3835 54.9842 36.0708 55.7391 35.5142 56.2956C34.9576 56.8522 34.2027 57.1649 33.4156 57.1649L4.75965 57.1649C3.93881 57.1294 3.16111 56.7874 2.58015 56.2065C1.99918 55.6255 1.65718 54.8478 1.62169 54.0269L1.62169 17.9008L1.00353 4.42598C0.9828 3.98377 1.052 3.54194 1.20695 3.12724C1.3619 2.71254 1.59937 2.33359 1.905 2.01331C2.21063 1.69304 2.57806 1.4381 2.98506 1.26393C3.39206 1.08976 3.83017 0.99997 4.27287 1Z" fill="white" stroke="#343232" stroke-miterlimit="10"/>
<path d="M3.21155 17.4883L2.6456 4.91123C2.63331 4.64038 2.67605 4.36985 2.77124 4.11598C2.86643 3.86211 3.01209 3.63017 3.19943 3.43417C3.38677 3.23817 3.6119 3.08218 3.86121 2.97562C4.11053 2.86907 4.37885 2.81416 4.64998 2.81421L33.183 2.81421C33.4541 2.81416 33.7225 2.86907 33.9718 2.97562C34.2211 3.08218 34.4462 3.23817 34.6336 3.43417C34.8209 3.63017 34.9666 3.86211 35.0618 4.11598C35.1569 4.36985 35.1997 4.64038 35.1874 4.91123L34.6198 17.485L3.21155 17.4883Z" fill="#343232" stroke="#343232" stroke-miterlimit="10"/>
<path d="M4.46194 6.08179L33.502 6.08179V15.9033L4.46194 15.9033V6.08179Z" fill="#7D7D7D"/>
<path d="M5.89513 7.51489L32.0684 7.51489V14.4696L5.89513 14.4696V7.51489Z" fill="#BFBFBF"/>
<path d="M19.6346 21.4785L32.6126 21.4785C33.0749 21.4785 33.4497 21.8533 33.4497 22.3156V24.9416C33.4497 25.4039 33.0749 25.7787 32.6126 25.7787L19.6346 25.7787C19.1723 25.7787 18.7975 25.4039 18.7975 24.9416V22.3156C18.7975 21.8533 19.1723 21.4785 19.6346 21.4785Z" fill="#7D7D7D" stroke="#343232" stroke-miterlimit="10"/>
<path d="M30.3706 21.5322V25.7785" stroke="#343232" stroke-miterlimit="10"/>
<path d="M27.4141 21.5322V25.7785" stroke="#343232" stroke-miterlimit="10"/>
<path d="M24.46 21.5322V25.7785" stroke="#343232" stroke-miterlimit="10"/>
<path d="M21.5039 21.5322V25.7785" stroke="#343232" stroke-miterlimit="10"/>
<path d="M10.6369 23.8416H14.2936C14.7234 23.8416 15.0718 24.19 15.0718 24.6197V26.4388C15.0718 26.8686 14.7234 27.217 14.2936 27.217H10.6369C10.2071 27.217 9.85869 26.8686 9.85869 26.4388V24.6197C9.85869 24.19 10.2071 23.8416 10.6369 23.8416Z" fill="#BDBDBD" stroke="#343232" stroke-miterlimit="10"/>
<path d="M28.9269 28.5005H32.5836C33.0134 28.5005 33.3618 28.8489 33.3618 29.2787V31.6957C33.3618 32.1255 33.0134 32.4739 32.5836 32.4739H28.9269C28.4971 32.4739 28.1487 32.1255 28.1487 31.6957V29.2787C28.1487 28.8489 28.4971 28.5005 28.9269 28.5005Z" fill="#BDBDBD" stroke="#343232" stroke-miterlimit="10"/>
<path d="M22.8156 28.5005H26.4723C26.9021 28.5005 27.2505 28.8489 27.2505 29.2787V31.6957C27.2505 32.1255 26.9021 32.4739 26.4723 32.4739H22.8156C22.3858 32.4739 22.0374 32.1255 22.0374 31.6957V29.2787C22.0374 28.8489 22.3858 28.5005 22.8156 28.5005Z" fill="#BDBDBD" stroke="#343232" stroke-miterlimit="10"/>
<path d="M20.3602 28.4922H16.7052C16.4983 28.4922 16.3 28.5744 16.1537 28.7206C16.0075 28.8669 15.9253 29.0652 15.9253 29.272V31.6925C15.9253 31.899 16.0073 32.0971 16.1531 32.2433C16.299 32.3895 16.497 32.4719 16.7035 32.4723H20.3585C20.4612 32.4728 20.5629 32.4529 20.6578 32.4139C20.7527 32.3749 20.8389 32.3175 20.9116 32.245C20.9842 32.1725 21.0418 32.0864 21.081 31.9916C21.1202 31.8967 21.1403 31.7951 21.1401 31.6925V29.2788C21.1412 29.1757 21.1218 29.0735 21.0831 28.978C21.0444 28.8825 20.9871 28.7957 20.9146 28.7225C20.842 28.6493 20.7557 28.5913 20.6605 28.5517C20.5653 28.5122 20.4633 28.492 20.3602 28.4922Z" fill="#BDBDBD" stroke="#343232" stroke-miterlimit="10"/>
<path d="M10.5944 28.5005H14.2511C14.6809 28.5005 15.0293 28.8489 15.0293 29.2787V31.6957C15.0293 32.1255 14.6809 32.4739 14.2511 32.4739H10.5944C10.1646 32.4739 9.81621 32.1255 9.81621 31.6957V29.2787C9.81621 28.8489 10.1646 28.5005 10.5944 28.5005Z" fill="#BDBDBD" stroke="#343232" stroke-miterlimit="10"/>
<path d="M4.48305 28.5005H8.13979C8.56956 28.5005 8.91797 28.8489 8.91797 29.2787V31.6957C8.91797 32.1255 8.56956 32.4739 8.13979 32.4739H4.48305C4.05328 32.4739 3.70488 32.1255 3.70488 31.6957L3.70488 29.2787C3.70488 28.8489 4.05328 28.5005 4.48305 28.5005Z" fill="#BDBDBD" stroke="#343232" stroke-miterlimit="10"/>
<path d="M28.9269 33.8416H32.5836C33.0134 33.8416 33.3618 34.19 33.3618 34.6197V37.0368C33.3618 37.4666 33.0134 37.815 32.5836 37.815H28.9269C28.4971 37.815 28.1487 37.4666 28.1487 37.0368V34.6197C28.1487 34.19 28.4971 33.8416 28.9269 33.8416Z" fill="#BDBDBD" stroke="#343232" stroke-miterlimit="10"/>
<path d="M22.8156 33.8416H26.4723C26.9021 33.8416 27.2505 34.19 27.2505 34.6197V37.0368C27.2505 37.4666 26.9021 37.815 26.4723 37.815H22.8156C22.3858 37.815 22.0374 37.4666 22.0374 37.0368V34.6197C22.0374 34.19 22.3858 33.8416 22.8156 33.8416Z" fill="#6B6B6B" stroke="#343232" stroke-miterlimit="10"/>
<path d="M20.3597 33.8416H16.7047C16.4979 33.8416 16.2995 33.9237 16.1532 34.07C16.007 34.2162 15.9248 34.4146 15.9248 34.6214V37.0368C15.9248 37.2433 16.0068 37.4414 16.1526 37.5876C16.2985 37.7338 16.4965 37.8162 16.703 37.8166H20.3581C20.5644 37.8166 20.7624 37.7346 20.9083 37.5887C21.0542 37.4428 21.1362 37.2448 21.1362 37.0385V34.6197C21.1362 34.4136 21.0545 34.216 20.9089 34.0701C20.7633 33.9242 20.5658 33.842 20.3597 33.8416Z" fill="#6B6B6B" stroke="#343232" stroke-miterlimit="10"/>
<path d="M10.5944 33.8416H14.2511C14.6809 33.8416 15.0293 34.19 15.0293 34.6197V37.0368C15.0293 37.4666 14.6809 37.815 14.2511 37.815H10.5944C10.1646 37.815 9.81621 37.4666 9.81621 37.0368V34.6197C9.81621 34.19 10.1646 33.8416 10.5944 33.8416Z" fill="#6B6B6B" stroke="#343232" stroke-miterlimit="10"/>
<path d="M4.48305 33.8416H8.13979C8.56956 33.8416 8.91797 34.19 8.91797 34.6197V37.0368C8.91797 37.4666 8.56956 37.815 8.13979 37.815H4.48305C4.05328 37.815 3.70488 37.4666 3.70488 37.0368L3.70488 34.6197C3.70488 34.19 4.05328 33.8416 4.48305 33.8416Z" fill="#BDBDBD" stroke="#343232" stroke-miterlimit="10"/>
<path d="M28.9269 39.1826H32.5836C33.0134 39.1826 33.3618 39.531 33.3618 39.9608V42.3778C33.3618 42.8076 33.0134 43.156 32.5836 43.156H28.9269C28.4971 43.156 28.1487 42.8076 28.1487 42.3778V39.9608C28.1487 39.531 28.4971 39.1826 28.9269 39.1826Z" fill="#BDBDBD" stroke="#343232" stroke-miterlimit="10"/>
<path d="M22.8156 39.1826H26.4723C26.9021 39.1826 27.2505 39.531 27.2505 39.9608V42.3778C27.2505 42.8076 26.9021 43.156 26.4723 43.156H22.8156C22.3858 43.156 22.0374 42.8076 22.0374 42.3778V39.9608C22.0374 39.531 22.3858 39.1826 22.8156 39.1826Z" fill="#6B6B6B" stroke="#343232" stroke-miterlimit="10"/>
<path d="M20.3597 39.1826H16.7047C16.4979 39.1826 16.2995 39.2648 16.1532 39.411C16.007 39.5573 15.9248 39.7556 15.9248 39.9625V42.3778C15.9248 42.5844 16.0068 42.7825 16.1526 42.9287C16.2985 43.0749 16.4965 43.1573 16.703 43.1577H20.3581C20.5644 43.1577 20.7624 43.0757 20.9083 42.9298C21.0542 42.7838 21.1362 42.5859 21.1362 42.3795V39.9625C21.1365 39.8603 21.1165 39.759 21.0776 39.6646C21.0387 39.5701 20.9816 39.4841 20.9095 39.4117C20.8374 39.3393 20.7517 39.2818 20.6574 39.2425C20.5631 39.2032 20.4619 39.1828 20.3597 39.1826Z" fill="#6B6B6B" stroke="#343232" stroke-miterlimit="10"/>
<path d="M10.5944 39.1826H14.2511C14.6809 39.1826 15.0293 39.531 15.0293 39.9608V42.3778C15.0293 42.8076 14.6809 43.156 14.2511 43.156H10.5944C10.1646 43.156 9.81621 42.8076 9.81621 42.3778V39.9608C9.81621 39.531 10.1646 39.1826 10.5944 39.1826Z" fill="#6B6B6B" stroke="#343232" stroke-miterlimit="10"/>
<path d="M4.48305 39.1826H8.13979C8.56956 39.1826 8.91797 39.531 8.91797 39.9608V42.3778C8.91797 42.8076 8.56956 43.156 8.13979 43.156H4.48305C4.05328 43.156 3.70488 42.8076 3.70488 42.3778L3.70488 39.9608C3.70488 39.531 4.05328 39.1826 4.48305 39.1826Z" fill="#BDBDBD" stroke="#343232" stroke-miterlimit="10"/>
<path d="M28.9269 44.5237H32.5836C33.0134 44.5237 33.3618 44.8721 33.3618 45.3019V47.7189C33.3618 48.1487 33.0134 48.4971 32.5836 48.4971H28.9269C28.4971 48.4971 28.1487 48.1487 28.1487 47.7189V45.3019C28.1487 44.8721 28.4971 44.5237 28.9269 44.5237Z" fill="#343232" stroke="#343232" stroke-linecap="round" stroke-linejoin="round"/>
<path d="M22.8156 44.5237H26.4723C26.9021 44.5237 27.2505 44.8721 27.2505 45.3019V47.7189C27.2505 48.1487 26.9021 48.4971 26.4723 48.4971H22.8156C22.3858 48.4971 22.0374 48.1487 22.0374 47.7189V45.3019C22.0374 44.8721 22.3858 44.5237 22.8156 44.5237Z" fill="#6B6B6B" stroke="#343232" stroke-miterlimit="10"/>
<path d="M20.3597 44.5237H16.7047C16.4979 44.5237 16.2995 44.6058 16.1532 44.7521C16.007 44.8984 15.9248 45.0967 15.9248 45.3035V47.7189C15.9248 47.9254 16.0068 48.1236 16.1526 48.2698C16.2985 48.416 16.4965 48.4983 16.703 48.4988H20.3581C20.5644 48.4988 20.7624 48.4168 20.9083 48.2708C21.0542 48.1249 21.1362 47.927 21.1362 47.7206V45.3035C21.1365 45.2013 21.1165 45.1001 21.0776 45.0056C21.0387 44.9111 20.9816 44.8252 20.9095 44.7528C20.8374 44.6804 20.7517 44.6229 20.6574 44.5836C20.5631 44.5442 20.4619 44.5239 20.3597 44.5237Z" fill="#6B6B6B" stroke="#343232" stroke-miterlimit="10"/>
<path d="M10.5944 44.5237H14.2511C14.6809 44.5237 15.0293 44.8721 15.0293 45.3019V47.7189C15.0293 48.1487 14.6809 48.4971 14.2511 48.4971H10.5944C10.1646 48.4971 9.81621 48.1487 9.81621 47.7189V45.3019C9.81621 44.8721 10.1646 44.5237 10.5944 44.5237Z" fill="#6B6B6B" stroke="#343232" stroke-miterlimit="10"/>
<path d="M28.9269 49.8665H32.5836C33.0134 49.8665 33.3618 50.2149 33.3618 50.6446V53.0617C33.3618 53.4915 33.0134 53.8399 32.5836 53.8399H28.9269C28.4971 53.8399 28.1487 53.4915 28.1487 53.0617V50.6446C28.1487 50.2149 28.4971 49.8665 28.9269 49.8665Z" fill="#343232" stroke="#343232" stroke-linecap="round" stroke-linejoin="round"/>
<path d="M22.8156 49.8665H26.4723C26.9021 49.8665 27.2505 50.2149 27.2505 50.6446V53.0617C27.2505 53.4915 26.9021 53.8399 26.4723 53.8399H22.8156C22.3858 53.8399 22.0374 53.4915 22.0374 53.0617V50.6446C22.0374 50.2149 22.3858 49.8665 22.8156 49.8665Z" fill="#6B6B6B" stroke="#343232" stroke-miterlimit="10"/>
<path d="M20.3597 49.8665H16.7047C16.4979 49.8665 16.2995 49.9486 16.1532 50.0949C16.007 50.2411 15.9248 50.4395 15.9248 50.6463V53.0617C15.9248 53.2682 16.0068 53.4663 16.1526 53.6125C16.2985 53.7587 16.4965 53.8411 16.703 53.8415H20.3581C20.5644 53.8415 20.7624 53.7596 20.9083 53.6136C21.0542 53.4677 21.1362 53.2698 21.1362 53.0634V50.6446C21.1362 50.4385 21.0545 50.2409 20.9089 50.095C20.7633 49.9491 20.5658 49.8669 20.3597 49.8665Z" fill="#6B6B6B" stroke="#343232" stroke-miterlimit="10"/>
<path d="M10.5944 49.8665H14.2511C14.6809 49.8665 15.0293 50.2149 15.0293 50.6446V53.0617C15.0293 53.4915 14.6809 53.8399 14.2511 53.8399H10.5944C10.1646 53.8399 9.81621 53.4915 9.81621 53.0617V50.6446C9.81621 50.2149 10.1646 49.8665 10.5944 49.8665Z" fill="#BDBDBD" stroke="#343232" stroke-miterlimit="10"/>
<path d="M4.49484 44.5237H8.128C8.33767 44.5241 8.53859 44.6077 8.68669 44.7561C8.83479 44.9046 8.91797 45.1057 8.91797 45.3153L8.91797 53.0499C8.91797 53.2594 8.83474 53.4603 8.68659 53.6085C8.53844 53.7566 8.33752 53.8399 8.128 53.8399H4.49484C4.28533 53.8399 4.0844 53.7566 3.93625 53.6085C3.78811 53.4603 3.70488 53.2594 3.70488 53.0499L3.70488 45.3153C3.70488 45.1057 3.78805 44.9046 3.93615 44.7561C4.08425 44.6077 4.28518 44.5241 4.49484 44.5237Z" fill="#BDBDBD" stroke="#343232" stroke-miterlimit="10"/>
<path d="M4.48305 23.8416H8.13979C8.56956 23.8416 8.91797 24.19 8.91797 24.6197V26.4388C8.91797 26.8686 8.56956 27.217 8.13979 27.217H4.48305C4.05328 27.217 3.70488 26.8686 3.70488 26.4388V24.6197C3.70488 24.19 4.05328 23.8416 4.48305 23.8416Z" fill="#343232" stroke="#343232" stroke-linecap="round" stroke-linejoin="round"/>
<path d="M7.91317 26.3648C8.06744 26.1603 8.15088 25.911 8.15088 25.6548C8.15088 25.3987 8.06744 25.1494 7.91317 24.9449C7.73672 24.7762 7.50204 24.6821 7.25796 24.6821C7.01387 24.6821 6.77919 24.7762 6.60274 24.9449C6.44848 25.1494 6.36503 25.3987 6.36503 25.6548C6.36503 25.911 6.44848 26.1603 6.60274 26.3648C6.77919 26.5335 7.01387 26.6276 7.25796 26.6276C7.50204 26.6276 7.73672 26.5335 7.91317 26.3648ZM6.80823 26.2098C6.70258 26.0437 6.64648 25.8509 6.64648 25.654C6.64648 25.4571 6.70258 25.2643 6.80823 25.0982C6.86171 25.0311 6.93041 24.9778 7.00863 24.9427C7.08684 24.9075 7.17232 24.8915 7.25796 24.896C7.34382 24.8917 7.42949 24.9077 7.50796 24.9428C7.58642 24.978 7.65544 25.0312 7.70936 25.0982C7.82661 25.2591 7.88597 25.455 7.8778 25.654C7.88733 25.8532 7.82783 26.0495 7.70936 26.2098C7.65324 26.2739 7.58409 26.3252 7.50653 26.3604C7.42897 26.3955 7.3448 26.4137 7.25964 26.4137C7.17449 26.4137 7.09031 26.3955 7.01275 26.3604C6.93519 26.3252 6.86604 26.2739 6.80992 26.2098H6.80823Z" fill="white"/>
<path d="M5.93378 26.5669C5.94601 26.5563 5.95569 26.5431 5.96211 26.5282C5.96852 26.5133 5.97151 26.4972 5.97083 26.481V24.8792C5.97231 24.8565 5.96919 24.8338 5.96166 24.8124C5.95414 24.791 5.94236 24.7713 5.92704 24.7546C5.91335 24.7397 5.89665 24.728 5.87806 24.7201C5.85947 24.7123 5.83941 24.7085 5.81924 24.7091C5.78547 24.7098 5.75243 24.719 5.72323 24.736C5.6891 24.7544 5.66014 24.781 5.63902 24.8135L4.67556 26.2149V24.827C4.67644 24.8109 4.67373 24.7949 4.66761 24.78C4.66149 24.7652 4.65212 24.7519 4.64019 24.7411C4.61633 24.7193 4.58487 24.7078 4.5526 24.7091C4.52097 24.7086 4.49032 24.72 4.4667 24.7411C4.45447 24.7517 4.44478 24.7649 4.43837 24.7798C4.43195 24.7947 4.42897 24.8108 4.42964 24.827V26.4271C4.42861 26.45 4.43227 26.4729 4.44038 26.4943C4.44849 26.5157 4.46088 26.5353 4.47681 26.5518C4.50829 26.5812 4.54989 26.5975 4.59303 26.5972C4.62595 26.5976 4.65847 26.59 4.68781 26.575C4.71714 26.56 4.74241 26.5382 4.76146 26.5113L5.72829 25.11V26.481C5.72722 26.4972 5.73003 26.5135 5.73647 26.5284C5.74291 26.5434 5.75281 26.5566 5.76534 26.5669C5.78989 26.5873 5.82102 26.5981 5.85293 26.5972C5.88252 26.5965 5.91101 26.5858 5.93378 26.5669Z" fill="white"/>
<path d="M31.7396 31.571C31.7694 31.549 31.7927 31.5193 31.807 31.4851L32.4234 30.1023V31.5407C32.4228 31.5547 32.4259 31.5687 32.4324 31.5811C32.4389 31.5935 32.4486 31.604 32.4605 31.6114C32.4857 31.6288 32.5158 31.6377 32.5464 31.6367C32.5769 31.6371 32.6069 31.6283 32.6323 31.6114C32.6442 31.604 32.6539 31.5935 32.6604 31.5811C32.6669 31.5687 32.67 31.5547 32.6693 31.5407V29.9759C32.6691 29.9515 32.6636 29.9273 32.6531 29.9052C32.6427 29.8831 32.6275 29.8636 32.6087 29.8479C32.5698 29.8146 32.5201 29.7967 32.4689 29.7974C32.4243 29.797 32.3808 29.8105 32.3443 29.8361C32.3013 29.8651 32.2679 29.9061 32.2483 29.954L31.6486 31.2864L31.049 29.954C31.0305 29.9064 30.9982 29.8654 30.9564 29.8361C30.9198 29.8107 30.8763 29.7972 30.8317 29.7974C30.78 29.7966 30.7297 29.8145 30.6902 29.8479C30.6711 29.8634 30.6556 29.8829 30.6449 29.905C30.6341 29.9271 30.6283 29.9513 30.6279 29.9759V31.5407C30.6277 31.5546 30.6311 31.5684 30.6375 31.5807C30.644 31.5931 30.6534 31.6036 30.665 31.6114C30.6904 31.6283 30.7203 31.6371 30.7509 31.6367C30.7819 31.6374 30.8125 31.6286 30.8385 31.6114C30.8498 31.6036 30.859 31.5929 30.8652 31.5806C30.8713 31.5682 30.8743 31.5545 30.8738 31.5407V30.1023L31.4903 31.4851C31.5052 31.5194 31.5291 31.5491 31.5594 31.571C31.5852 31.5903 31.6164 31.6009 31.6486 31.6013C31.6814 31.6009 31.7131 31.5903 31.7396 31.571Z" fill="white"/>
<path d="M29.8231 31.5509C29.9548 31.4666 30.0595 31.3461 30.1246 31.2039C30.1924 31.0495 30.2263 30.8824 30.224 30.7138C30.2248 30.5839 30.2043 30.4547 30.1634 30.3314C30.1269 30.2186 30.0698 30.1135 29.9949 30.0215C29.9173 29.9314 29.8206 29.8595 29.712 29.811C29.5924 29.7594 29.4632 29.7336 29.333 29.7352C29.1661 29.7339 29.0018 29.7763 28.8563 29.8581C28.8386 29.8658 28.8236 29.8785 28.8131 29.8947C28.8026 29.9109 28.7971 29.9298 28.7974 29.9491C28.7973 29.9628 28.7999 29.9765 28.8051 29.9892C28.8103 30.0019 28.818 30.0135 28.8277 30.0232C28.8363 30.0331 28.8469 30.0411 28.8588 30.0466C28.8707 30.0521 28.8836 30.0551 28.8967 30.0552C28.912 30.0542 28.9269 30.0502 28.9405 30.0434L28.9725 30.0266L29.018 30.0064L29.0702 29.9861L29.1393 29.9659L29.2218 29.9541C29.256 29.9524 29.2903 29.9524 29.3246 29.9541C29.4037 29.9533 29.4824 29.9664 29.557 29.9929C29.6197 30.0182 29.6769 30.0554 29.7254 30.1024C29.7747 30.1516 29.8157 30.2085 29.8467 30.2708C29.8793 30.337 29.9031 30.4072 29.9175 30.4797C29.9466 30.6361 29.9466 30.7965 29.9175 30.953C29.903 31.0248 29.8792 31.0945 29.8467 31.1601C29.8156 31.2225 29.7747 31.2793 29.7254 31.3286C29.6735 31.3758 29.6129 31.4125 29.5469 31.4364C29.4709 31.4643 29.3904 31.478 29.3094 31.4768C29.2396 31.4775 29.1702 31.4667 29.1039 31.4448C29.0374 31.4208 28.9731 31.3909 28.9119 31.3555C28.8966 31.3466 28.8791 31.342 28.8614 31.3421C28.8481 31.3421 28.835 31.3447 28.8229 31.35C28.8107 31.3552 28.7997 31.3628 28.7906 31.3724C28.7723 31.3914 28.7621 31.4167 28.762 31.4431C28.7629 31.4645 28.7694 31.4853 28.781 31.5033C28.7925 31.5214 28.8086 31.5361 28.8277 31.5459C28.9837 31.6445 29.1653 31.6948 29.3498 31.6907C29.5179 31.6915 29.6825 31.6429 29.8231 31.5509Z" fill="white"/>
<path d="M31.1702 52.3779H32.0797L32.2364 52.7804C32.2442 52.8066 32.2606 52.8295 32.2828 52.8453C32.3051 52.8612 32.332 52.8692 32.3593 52.868C32.3927 52.8679 32.4249 52.8559 32.4503 52.8343C32.4629 52.8246 32.4731 52.8121 32.4801 52.7978C32.4871 52.7835 32.4907 52.7677 32.4907 52.7518C32.4903 52.7351 32.4869 52.7185 32.4806 52.703L31.8524 51.1433C31.8342 51.0857 31.8003 51.0344 31.7547 50.995C31.7161 50.9701 31.6708 50.9578 31.625 50.9597C31.5791 50.958 31.5339 50.9703 31.4953 50.995C31.4496 51.0344 31.4158 51.0857 31.3976 51.1433L30.7693 52.703C30.763 52.7185 30.7596 52.7351 30.7592 52.7518C30.7591 52.7679 30.7629 52.7838 30.7702 52.7982C30.7776 52.8125 30.7882 52.8249 30.8013 52.8343C30.8267 52.8559 30.8589 52.8679 30.8923 52.868C30.9195 52.8689 30.9463 52.8608 30.9685 52.845C30.9907 52.8292 31.0071 52.8065 31.0152 52.7804L31.1702 52.3779ZM31.625 51.2106L32.0039 52.1876H31.246L31.625 51.2106Z" fill="white"/>
<path d="M30.1179 52.7587C30.2492 52.6746 30.3538 52.5548 30.4194 52.4134C30.4882 52.2593 30.5221 52.092 30.5188 51.9233C30.5198 51.7934 30.4993 51.6642 30.4582 51.5409C30.4217 51.4276 30.3646 51.3219 30.2898 51.2293C30.2124 51.1392 30.1157 51.0678 30.0068 51.0205C29.8876 50.9674 29.7583 50.941 29.6278 50.943C29.4609 50.9419 29.2967 50.9843 29.1511 51.0659C29.136 51.0731 29.1228 51.0839 29.1127 51.0972C29.1026 51.1106 29.0959 51.1262 29.0931 51.1427C29.0903 51.1592 29.0915 51.1762 29.0966 51.1921C29.1017 51.2081 29.1106 51.2226 29.1225 51.2344C29.1309 51.2446 29.1414 51.2527 29.1534 51.2583C29.1653 51.2638 29.1784 51.2666 29.1916 51.2664C29.2067 51.2661 29.2216 51.2626 29.2353 51.2563L29.269 51.2394L29.3128 51.2175L29.365 51.199L29.4341 51.1788C29.4613 51.1725 29.4889 51.168 29.5166 51.1653C29.5509 51.1636 29.5852 51.1636 29.6194 51.1653C29.6987 51.1641 29.7775 51.1779 29.8518 51.2057C29.9151 51.2299 29.9725 51.2672 30.0203 51.3152C30.0695 51.3644 30.1105 51.4213 30.1415 51.4837C30.174 51.5493 30.1978 51.619 30.2123 51.6908C30.2274 51.7691 30.2347 51.8486 30.2342 51.9283C30.2349 52.008 30.2276 52.0876 30.2123 52.1658C30.1981 52.2372 30.1743 52.3063 30.1415 52.3713C30.1105 52.4336 30.0695 52.4905 30.0203 52.5397C29.9684 52.5875 29.9078 52.6247 29.8417 52.6492C29.7654 52.6757 29.685 52.6888 29.6042 52.688C29.5345 52.6892 29.4651 52.6789 29.3987 52.6577C29.3325 52.633 29.2683 52.6031 29.2067 52.5684C29.1916 52.5588 29.1741 52.5535 29.1562 52.5532C29.1432 52.553 29.1303 52.5557 29.1184 52.5609C29.1064 52.5661 29.0958 52.5738 29.0871 52.5835C29.0775 52.5927 29.0699 52.6036 29.0647 52.6158C29.0595 52.628 29.0568 52.6411 29.0568 52.6543C29.0577 52.6761 29.0645 52.6973 29.0763 52.7156C29.0882 52.734 29.1047 52.7489 29.1242 52.7587C29.2797 52.857 29.4608 52.9068 29.6446 52.9019C29.8132 52.9026 29.9781 52.8527 30.1179 52.7587Z" fill="white"/>
<path d="M31.1622 47.3686C31.2943 47.2854 31.3991 47.1654 31.4637 47.0233C31.533 46.8693 31.5675 46.702 31.5648 46.5331C31.5662 46.4031 31.5451 46.2737 31.5025 46.1508C31.4667 46.0372 31.4095 45.9314 31.334 45.8392C31.2574 45.7483 31.1605 45.6768 31.0511 45.6303C30.9325 45.5772 30.8037 45.5508 30.6738 45.5528C30.5069 45.5514 30.3425 45.5938 30.1971 45.6758C30.1796 45.6838 30.1648 45.6966 30.1544 45.7127C30.1439 45.7288 30.1383 45.7476 30.1381 45.7668C30.1379 45.7942 30.1481 45.8207 30.1668 45.8409C30.1755 45.851 30.1864 45.8591 30.1986 45.8646C30.2108 45.8702 30.2241 45.873 30.2375 45.8729C30.2526 45.8724 30.2675 45.869 30.2813 45.8628L30.3133 45.8459L30.3571 45.824L30.411 45.8055L30.4801 45.7853C30.5073 45.779 30.5348 45.7745 30.5626 45.7718C30.5963 45.77 30.63 45.77 30.6637 45.7718C30.7435 45.7708 30.8229 45.7845 30.8978 45.8122C30.9611 45.8363 31.0185 45.8737 31.0662 45.9217C31.115 45.971 31.1554 46.0279 31.1858 46.0902C31.2197 46.1554 31.244 46.2252 31.2582 46.2973C31.2733 46.3756 31.2807 46.4551 31.2801 46.5348C31.2809 46.6145 31.2735 46.6941 31.2582 46.7723C31.2443 46.844 31.2199 46.9132 31.1858 46.9778C31.1559 47.0409 31.1149 47.0979 31.0645 47.1462C31.0161 47.1934 30.9589 47.2306 30.8961 47.2557C30.8197 47.2821 30.7394 47.2952 30.6586 47.2945C30.5884 47.2958 30.5184 47.2856 30.4514 47.2642C30.3856 47.2397 30.3219 47.2099 30.2611 47.1749C30.2458 47.1657 30.2284 47.1605 30.2106 47.1597C30.1973 47.1595 30.1842 47.1621 30.172 47.1673C30.1598 47.1726 30.1488 47.1803 30.1398 47.19C30.1216 47.2091 30.1113 47.2344 30.1112 47.2608C30.1121 47.2824 30.1187 47.3034 30.1302 47.3217C30.1417 47.34 30.1578 47.355 30.1769 47.3652C30.3324 47.4634 30.5135 47.5133 30.6973 47.5084C30.8627 47.5084 31.0243 47.4598 31.1622 47.3686Z" fill="white"/>
<path d="M31.8318 35.9032C31.9106 35.7963 31.9531 35.6671 31.9531 35.5343C31.9531 35.4016 31.9106 35.2723 31.8318 35.1654C31.7916 35.1156 31.74 35.0762 31.6814 35.0504C31.6228 35.0246 31.5589 35.0132 31.495 35.0172C31.4251 35.0162 31.356 35.0311 31.2928 35.061C31.2357 35.0881 31.1865 35.1292 31.1497 35.1806C31.114 35.2319 31.0872 35.2888 31.0705 35.349C31.052 35.4096 31.0429 35.4727 31.0435 35.536C31.0389 35.6697 31.0826 35.8007 31.1665 35.9049C31.208 35.9508 31.2587 35.9874 31.3153 36.0125C31.3719 36.0376 31.4331 36.0506 31.495 36.0506C31.5568 36.0506 31.618 36.0376 31.6746 36.0125C31.7312 35.9874 31.7819 35.9508 31.8234 35.9049L31.8318 35.9032ZM31.3552 35.8459C31.3162 35.8098 31.2877 35.7638 31.2726 35.7129C31.2565 35.6542 31.2485 35.5935 31.249 35.5326C31.2484 35.4723 31.2563 35.4122 31.2726 35.3541C31.2869 35.3028 31.3155 35.2566 31.3552 35.221C31.3964 35.1863 31.4486 35.1673 31.5025 35.1673C31.5565 35.1673 31.6086 35.1863 31.6499 35.221C31.6891 35.2567 31.7171 35.3029 31.7308 35.3541C31.7479 35.412 31.7558 35.4722 31.7543 35.5326C31.7557 35.5936 31.7477 35.6543 31.7308 35.7129C31.7163 35.7637 31.6884 35.8097 31.6499 35.8459C31.6086 35.8806 31.5565 35.8996 31.5025 35.8996C31.4486 35.8996 31.3964 35.8806 31.3552 35.8459ZM31.4832 36.9525C31.4911 36.946 31.4975 36.9378 31.5019 36.9285C31.5063 36.9191 31.5085 36.9089 31.5084 36.8986C31.5071 36.8825 31.5019 36.8669 31.4933 36.8532L30.4608 35.0256C30.4537 35.0109 30.4427 34.9985 30.4291 34.9896C30.4154 34.9806 30.3996 34.9756 30.3833 34.9751C30.3735 34.975 30.3639 34.9768 30.3549 34.9806C30.3459 34.9844 30.3378 34.99 30.3311 34.997C30.3169 35.0121 30.3091 35.0319 30.3092 35.0526C30.3106 35.0721 30.3164 35.0911 30.326 35.1082L31.3552 36.9239C31.361 36.9384 31.371 36.951 31.3839 36.9599C31.3967 36.9689 31.4119 36.9739 31.4276 36.9744C31.4485 36.974 31.4684 36.9656 31.4832 36.9509V36.9525ZM30.5585 36.7841C30.6419 36.6784 30.6849 36.5464 30.6797 36.4119C30.6843 36.2792 30.6406 36.1493 30.5568 36.0464C30.5176 35.9979 30.4677 35.9592 30.411 35.9335C30.3542 35.9077 30.2923 35.8956 30.23 35.8981C30.1602 35.8971 30.091 35.9121 30.0279 35.9419C29.9716 35.9695 29.9229 36.0106 29.8864 36.0615C29.8506 36.1127 29.8238 36.1697 29.8072 36.23C29.789 36.2906 29.7799 36.3536 29.7803 36.4169C29.7787 36.5061 29.7965 36.5947 29.8325 36.6763C29.8657 36.7518 29.9194 36.8166 29.9875 36.8633C30.0592 36.911 30.1438 36.9357 30.23 36.934C30.2932 36.9353 30.3557 36.9218 30.4128 36.8946C30.4698 36.8674 30.5197 36.8272 30.5585 36.7774V36.7841ZM30.0835 36.7252C30.0442 36.6899 30.0157 36.6444 30.0009 36.5938C29.9854 36.5344 29.978 36.4732 29.979 36.4119C29.9785 36.3661 29.9824 36.3204 29.9908 36.2754C30.0001 36.2351 30.0142 36.1961 30.0329 36.1592C30.0515 36.1252 30.0789 36.0967 30.1121 36.0767C30.1478 36.0559 30.1887 36.0454 30.23 36.0464C30.2845 36.0448 30.3375 36.0641 30.3782 36.1003C30.4167 36.1365 30.4446 36.1825 30.4591 36.2333C30.4883 36.3511 30.4883 36.4743 30.4591 36.5921C30.4446 36.6429 30.4167 36.6889 30.3782 36.7252C30.3375 36.7613 30.2845 36.7806 30.23 36.7791C30.1751 36.7789 30.1224 36.7571 30.0835 36.7184V36.7252Z" fill="white"/>
<path d="M24.8908 36.8449C24.9037 36.8342 24.914 36.8209 24.921 36.8057C24.928 36.7905 24.9315 36.774 24.9313 36.7573C24.9302 36.7376 24.9256 36.7182 24.9178 36.7L24.271 35.2144H25.1485C25.1632 35.215 25.1779 35.2124 25.1915 35.2069C25.2052 35.2014 25.2175 35.193 25.2277 35.1824C25.245 35.1616 25.2544 35.1354 25.2544 35.1083C25.2544 35.0812 25.245 35.055 25.2277 35.0342C25.2178 35.0232 25.2055 35.0146 25.1918 35.0091C25.1781 35.0035 25.1633 35.0012 25.1485 35.0022H24.1379C24.0986 35.0003 24.0599 35.0122 24.0284 35.0359C24.0156 35.0472 24.0055 35.0612 23.9987 35.0769C23.992 35.0927 23.9889 35.1097 23.9897 35.1268C23.9901 35.1656 23.9981 35.204 24.0133 35.2397L24.687 36.8061C24.6953 36.829 24.7108 36.8486 24.7311 36.8619C24.7515 36.8753 24.7756 36.8817 24.7999 36.8802C24.8334 36.8796 24.8657 36.8671 24.8908 36.8449Z" fill="white"/>
<path d="M18.8187 36.8497C18.9125 36.8127 18.9934 36.7488 19.0511 36.6661C19.1096 36.5804 19.1396 36.4785 19.137 36.3747C19.1399 36.2645 19.1055 36.1565 19.0393 36.0682C18.9717 35.9793 18.8731 35.9192 18.7631 35.8998C18.8647 35.8804 18.9561 35.8255 19.0208 35.7448C19.0796 35.6643 19.1098 35.5665 19.1067 35.4669C19.1099 35.3675 19.0803 35.2698 19.0225 35.189C18.9657 35.1131 18.8886 35.0547 18.8002 35.0205C18.7002 34.9823 18.5939 34.9634 18.4869 34.9649C18.4044 34.9649 18.3223 34.9756 18.2426 34.9969C18.1723 35.0174 18.1057 35.0493 18.0456 35.0913C17.9886 35.1331 17.9424 35.188 17.9108 35.2513C17.8779 35.3195 17.8612 35.3945 17.862 35.4702C17.859 35.5709 17.8905 35.6696 17.9513 35.7498C18.0148 35.8291 18.1043 35.8834 18.2039 35.9031C18.0953 35.9271 17.9976 35.9863 17.926 36.0716C17.8668 36.1591 17.8351 36.2623 17.8351 36.368C17.8351 36.4737 17.8668 36.5769 17.926 36.6644C17.9845 36.7464 18.0651 36.8101 18.1584 36.848C18.3759 36.9282 18.6148 36.9282 18.8322 36.848L18.8187 36.8497ZM18.2073 36.6257C18.1705 36.5959 18.1415 36.5577 18.1228 36.5143C18.104 36.4709 18.096 36.4236 18.0995 36.3764C18.0969 36.3267 18.1054 36.2771 18.1244 36.2311C18.1433 36.1851 18.1722 36.1438 18.209 36.1103C18.2866 36.0466 18.3849 36.0136 18.4852 36.0177C18.586 36.0138 18.6848 36.0467 18.7631 36.1103C18.7999 36.1438 18.8288 36.1851 18.8477 36.2311C18.8666 36.2771 18.8751 36.3267 18.8726 36.3764C18.8757 36.4435 18.8567 36.5097 18.8187 36.5651C18.7851 36.6149 18.7368 36.6532 18.6806 36.6746C18.6183 36.6986 18.5519 36.71 18.4852 36.7082C18.3859 36.7127 18.288 36.6836 18.2073 36.6257ZM18.2073 35.6993C18.1737 35.6703 18.1472 35.634 18.13 35.593C18.1127 35.5521 18.1052 35.5078 18.1079 35.4635C18.1047 35.419 18.1127 35.3743 18.1312 35.3337C18.1498 35.2931 18.1782 35.2578 18.214 35.2311C18.2919 35.1784 18.3845 35.1518 18.4785 35.1553C18.525 35.1556 18.5713 35.1612 18.6166 35.1721C18.6583 35.1836 18.698 35.2012 18.7345 35.2243C18.7705 35.2487 18.799 35.2825 18.817 35.322C18.8386 35.366 18.8496 35.4145 18.849 35.4635C18.8517 35.5078 18.8442 35.5521 18.827 35.593C18.8097 35.634 18.7833 35.6703 18.7496 35.6993C18.6713 35.7569 18.5755 35.7854 18.4785 35.7802C18.3836 35.7844 18.2902 35.7559 18.214 35.6993H18.2073Z" fill="white"/>
<path d="M13.05 36.8112C13.0657 36.8042 13.0789 36.7925 13.0876 36.7777C13.0964 36.7629 13.1003 36.7458 13.0988 36.7286C13.0994 36.6986 13.0893 36.6693 13.0702 36.6461C13.063 36.6346 13.0531 36.6251 13.0414 36.6183C13.0296 36.6115 13.0164 36.6078 13.0028 36.6074C12.9912 36.6081 12.9798 36.611 12.9692 36.6158C12.8644 36.6676 12.7491 36.6947 12.6323 36.695C12.5755 36.6964 12.5187 36.6896 12.4638 36.6747C12.42 36.6634 12.3784 36.6446 12.3409 36.6192C12.306 36.5949 12.2762 36.564 12.2533 36.5282C12.2286 36.4911 12.2077 36.4516 12.191 36.4103C12.1747 36.3625 12.1623 36.3135 12.1539 36.2638C12.1448 36.208 12.1392 36.1518 12.1371 36.0953C12.1371 36.0414 12.1371 35.9791 12.1371 35.9117C12.1653 35.9921 12.2215 36.0596 12.2954 36.1021C12.3854 36.1577 12.4894 36.1864 12.5952 36.1846C12.6753 36.1878 12.7553 36.1745 12.83 36.1456C12.9048 36.1166 12.9728 36.0725 13.0298 36.0162C13.0856 35.9591 13.1293 35.8913 13.1583 35.8169C13.1872 35.7426 13.2008 35.6631 13.1982 35.5833C13.2016 35.5009 13.1884 35.4186 13.1595 35.3414C13.1305 35.2641 13.0864 35.1935 13.0298 35.1335C12.968 35.0755 12.8951 35.0307 12.8155 35.0017C12.7359 34.9728 12.6512 34.9603 12.5666 34.9651C12.4724 34.9641 12.3789 34.9801 12.2904 35.0123C12.2154 35.0398 12.1471 35.0829 12.0899 35.1386C12.0371 35.1949 11.9944 35.2599 11.9636 35.3306C11.9299 35.4047 11.9061 35.4828 11.8928 35.5631C11.8784 35.6493 11.871 35.7367 11.871 35.8241C11.871 35.9016 11.871 35.9724 11.871 36.0397C11.8762 36.1115 11.8857 36.183 11.8996 36.2536C11.913 36.3229 11.9316 36.391 11.9552 36.4575C11.9799 36.5206 12.0121 36.5806 12.0512 36.636C12.0883 36.6926 12.135 36.7422 12.1893 36.7825C12.2475 36.8246 12.3125 36.8564 12.3813 36.8769C12.6023 36.9382 12.8381 36.9154 13.0433 36.8129L13.05 36.8112ZM12.2718 35.8865C12.2037 35.802 12.1666 35.6968 12.1666 35.5883C12.1666 35.4799 12.2037 35.3746 12.2718 35.2902C12.3072 35.2502 12.3513 35.2189 12.4006 35.1984C12.4499 35.178 12.5032 35.1691 12.5565 35.1723C12.6103 35.1687 12.6643 35.177 12.7147 35.1965C12.765 35.216 12.8105 35.2462 12.8479 35.2851C12.9186 35.3685 12.9548 35.4758 12.9489 35.585C12.9538 35.6921 12.921 35.7976 12.8563 35.8831C12.8233 35.9232 12.7811 35.9547 12.7333 35.9749C12.6855 35.9952 12.6335 36.0035 12.5818 35.9993C12.525 36.0036 12.4681 35.9957 12.4146 35.9762C12.3612 35.9568 12.3125 35.9262 12.2718 35.8865Z" fill="white"/>
<path d="M24.352 42.0699C24.3647 42.0592 24.3747 42.0457 24.3814 42.0305C24.3882 42.0154 24.3913 41.9989 24.3907 41.9823V41.6909H25.1487C25.1673 41.6918 25.186 41.6884 25.2032 41.6811C25.2204 41.6739 25.2357 41.6628 25.2481 41.6488C25.2726 41.6229 25.286 41.5884 25.2851 41.5528C25.2848 41.5234 25.276 41.4948 25.2599 41.4702L24.5389 40.3367C24.5175 40.2985 24.4862 40.2667 24.4482 40.2448C24.4103 40.2229 24.3672 40.2115 24.3234 40.212C24.2749 40.2105 24.2276 40.2266 24.1903 40.2575C24.1722 40.2755 24.1582 40.2971 24.1492 40.3209C24.1402 40.3447 24.1364 40.3702 24.1381 40.3956V41.4972H23.9461C23.9329 41.4965 23.9197 41.4988 23.9075 41.5037C23.8953 41.5087 23.8843 41.5162 23.8753 41.5258C23.8588 41.5443 23.8498 41.5684 23.85 41.5932C23.8493 41.6186 23.8584 41.6433 23.8753 41.6623C23.8843 41.6719 23.8953 41.6794 23.9075 41.6843C23.9197 41.6893 23.9329 41.6915 23.9461 41.6909H24.1381V41.9823C24.1375 41.9989 24.1406 42.0154 24.1474 42.0305C24.1541 42.0457 24.1641 42.0592 24.1768 42.0699C24.2013 42.0905 24.2324 42.1018 24.2644 42.1019C24.2963 42.1008 24.3269 42.0896 24.352 42.0699ZM24.3907 41.4972V40.4866L25.0224 41.4972H24.3907Z" fill="white"/>
<path d="M18.7687 42.0763C18.8617 42.039 18.9472 41.9854 19.0213 41.918C19.0301 41.9113 19.0371 41.9026 19.0418 41.8926C19.0465 41.8827 19.0487 41.8717 19.0483 41.8607C19.0475 41.8297 19.0348 41.8002 19.0129 41.7782C19.0035 41.7666 18.9918 41.7571 18.9784 41.7504C18.965 41.7437 18.9504 41.74 18.9354 41.7394C18.9187 41.7391 18.9024 41.7451 18.89 41.7563C18.7745 41.8601 18.6241 41.9166 18.4689 41.9146C18.415 41.9186 18.361 41.9113 18.3102 41.893C18.2594 41.8747 18.213 41.8459 18.1741 41.8085C18.1029 41.7254 18.0667 41.6179 18.0731 41.5087C18.0688 41.4051 18.1044 41.3039 18.1724 41.2257C18.2057 41.1897 18.2465 41.1614 18.2919 41.1428C18.3373 41.1242 18.3862 41.1157 18.4352 41.1179C18.5076 41.1186 18.5789 41.1353 18.644 41.1668C18.7086 41.1939 18.7662 41.2354 18.8125 41.288C18.8196 41.2942 18.8279 41.2988 18.8369 41.3017C18.8459 41.3046 18.8553 41.3057 18.8647 41.3049C18.9024 41.3042 18.9394 41.2943 18.9725 41.2762C19.0079 41.256 19.0264 41.2341 19.0264 41.2072V40.3448C19.0264 40.2656 18.9843 40.2252 18.8984 40.2252H18.0309C18.0176 40.2245 18.0043 40.2269 17.9921 40.2322C17.9798 40.2374 17.9689 40.2454 17.9602 40.2555C17.9424 40.2747 17.9327 40.3001 17.9333 40.3263C17.9329 40.3521 17.9419 40.3772 17.9585 40.397C17.9678 40.4068 17.9791 40.4144 17.9916 40.4193C18.0041 40.4243 18.0175 40.4264 18.0309 40.4256H18.8159V41.064L18.8007 41.0472C18.7862 41.0327 18.7697 41.0202 18.7518 41.0101C18.7265 40.9932 18.7001 40.978 18.6727 40.9646C18.6348 40.9481 18.5953 40.9357 18.5548 40.9276C18.5055 40.9167 18.4553 40.9111 18.4049 40.9107C18.3265 40.907 18.2481 40.92 18.1752 40.9491C18.1023 40.9782 18.0364 41.0225 17.9821 41.0792C17.9267 41.1369 17.8834 41.205 17.8545 41.2796C17.8256 41.3542 17.8117 41.4338 17.8137 41.5137C17.8103 41.5967 17.8246 41.6794 17.8557 41.7563C17.8868 41.8333 17.9339 41.9028 17.9939 41.9601C18.1198 42.0744 18.2855 42.1349 18.4554 42.1285C18.5622 42.1314 18.6686 42.1137 18.7687 42.0763Z" fill="white"/>
<path d="M12.7771 42.0814C12.852 42.0548 12.9199 42.0116 12.9758 41.9551C13.0296 41.8999 13.073 41.8354 13.1038 41.7648C13.1373 41.6901 13.1611 41.6114 13.1746 41.5307C13.1885 41.4443 13.1953 41.357 13.1948 41.2696C13.1948 41.1938 13.1948 41.1214 13.1948 41.0557C13.1905 40.9838 13.1809 40.9123 13.1662 40.8418C13.1543 40.7716 13.1357 40.7028 13.1106 40.6363C13.0862 40.5733 13.0545 40.5134 13.0163 40.4577C12.9357 40.3407 12.8164 40.256 12.6794 40.2185C12.5975 40.194 12.5123 40.1821 12.4267 40.1832C12.2821 40.1829 12.1395 40.2169 12.0107 40.2826C11.9951 40.2902 11.9822 40.3023 11.9735 40.3172C11.9648 40.3322 11.9607 40.3495 11.9618 40.3668C11.9623 40.3966 11.9724 40.4256 11.9905 40.4493C11.9979 40.4605 12.0079 40.4697 12.0196 40.4762C12.0313 40.4826 12.0445 40.4861 12.0579 40.4864C12.0696 40.4866 12.0813 40.4837 12.0915 40.4779C12.1968 40.4274 12.3117 40.4004 12.4284 40.3988C12.4824 40.3982 12.5363 40.405 12.5884 40.419C12.6315 40.4319 12.6724 40.4512 12.7097 40.4763C12.7447 40.5009 12.775 40.5317 12.799 40.5672C12.8241 40.6038 12.8445 40.6434 12.8596 40.6851C12.8762 40.7322 12.8886 40.7807 12.8967 40.83C12.9051 40.8856 12.9118 40.9411 12.9152 40.9984C12.9186 41.0557 12.9152 41.1129 12.9152 41.182C12.8873 41.1014 12.831 41.0337 12.7569 40.9917C12.6672 40.9352 12.5629 40.9065 12.457 40.9091C12.3769 40.9055 12.2969 40.9186 12.222 40.9476C12.1472 40.9766 12.0793 41.0209 12.0225 41.0776C11.9664 41.1344 11.9225 41.2022 11.8936 41.2766C11.8646 41.3511 11.8512 41.4306 11.8541 41.5105C11.8507 41.5926 11.8639 41.6746 11.8929 41.7515C11.9218 41.8285 11.9659 41.8989 12.0225 41.9585C12.0846 42.0165 12.1578 42.0614 12.2377 42.0904C12.3176 42.1193 12.4025 42.1318 12.4874 42.1269C12.586 42.1312 12.6845 42.1157 12.7771 42.0814ZM12.7922 41.2056C12.8608 41.2902 12.8981 41.3957 12.8981 41.5046C12.8981 41.6134 12.8608 41.7189 12.7922 41.8035C12.7564 41.8428 12.7122 41.8736 12.663 41.8937C12.6138 41.9138 12.5607 41.9227 12.5076 41.9197C12.4539 41.9233 12.4 41.9152 12.3497 41.896C12.2995 41.8768 12.2539 41.847 12.2162 41.8086C12.1455 41.7245 12.1093 41.6168 12.1151 41.5071C12.1106 41.4002 12.1427 41.2951 12.2061 41.2089C12.2399 41.1698 12.2822 41.139 12.3298 41.1188C12.3774 41.0987 12.429 41.0897 12.4806 41.0927C12.5376 41.0886 12.5948 41.0965 12.6485 41.1159C12.7022 41.1354 12.7512 41.1659 12.7922 41.2056Z" fill="white"/>
<path d="M24.5946 47.5404C24.6081 47.5292 24.6189 47.515 24.6259 47.4989C24.6329 47.4828 24.6361 47.4653 24.635 47.4477V45.9638L24.9196 46.1474C24.9353 46.1572 24.9534 46.1625 24.9719 46.1626C24.9844 46.1625 24.9969 46.16 25.0084 46.1551C25.02 46.1501 25.0305 46.143 25.0392 46.1339C25.0576 46.1156 25.0679 46.0908 25.0679 46.0649C25.0676 46.0491 25.0633 46.0337 25.0554 46.0201C25.0474 46.0066 25.036 45.9953 25.0224 45.9874L24.5693 45.7044C24.5474 45.6916 24.5223 45.6852 24.4969 45.6859C24.4805 45.6852 24.4641 45.6878 24.4488 45.6936C24.4334 45.6994 24.4194 45.7082 24.4076 45.7196C24.3949 45.732 24.3851 45.747 24.3787 45.7636C24.3723 45.7802 24.3695 45.7979 24.3705 45.8156V47.4477C24.3693 47.4651 24.3721 47.4826 24.3789 47.4987C24.3856 47.5148 24.396 47.5291 24.4093 47.5404C24.4356 47.5626 24.4691 47.5746 24.5036 47.5741C24.5371 47.5745 24.5695 47.5625 24.5946 47.5404Z" fill="white"/>
<path d="M17.9584 46.4927C18.022 46.6025 18.1034 46.701 18.1993 46.7841L18.804 47.3736H18.0073C17.9934 47.373 17.9795 47.3752 17.9664 47.3802C17.9534 47.3851 17.9415 47.3926 17.9315 47.4023C17.9137 47.4215 17.904 47.4468 17.9045 47.473C17.904 47.486 17.9061 47.499 17.9107 47.5112C17.9154 47.5233 17.9224 47.5344 17.9315 47.5438C17.9412 47.554 17.953 47.562 17.9661 47.5672C17.9791 47.5724 17.9932 47.5748 18.0073 47.5741H18.9168C18.9621 47.5759 19.0067 47.5623 19.0432 47.5353C19.0581 47.5238 19.0701 47.509 19.0783 47.4921C19.0865 47.4751 19.0906 47.4565 19.0903 47.4376C19.0893 47.4129 19.0832 47.3887 19.0725 47.3664C19.0618 47.3441 19.0467 47.3242 19.028 47.3079L18.3408 46.6123C18.2804 46.5517 18.2278 46.4838 18.1841 46.4102C18.1519 46.3543 18.1345 46.2911 18.1336 46.2266C18.132 46.1798 18.1401 46.1331 18.1575 46.0896C18.1749 46.0461 18.2012 46.0067 18.2347 45.9739C18.2676 45.9424 18.3064 45.9177 18.3489 45.9012C18.3914 45.8847 18.4367 45.8768 18.4823 45.8779C18.5389 45.8766 18.5955 45.8823 18.6507 45.8948C18.6869 45.9011 18.7224 45.9107 18.7568 45.9234C18.7886 45.9378 18.8196 45.9542 18.8495 45.9722L18.9168 46.0093C18.9291 46.0116 18.9416 46.0116 18.9539 46.0093C18.968 46.0095 18.9819 46.0065 18.9947 46.0007C19.0075 45.9949 19.0189 45.9863 19.028 45.9756C19.0383 45.9659 19.0464 45.9541 19.0519 45.9411C19.0574 45.928 19.0602 45.914 19.06 45.8998C19.0599 45.883 19.0551 45.8665 19.0462 45.8522C19.0373 45.838 19.0246 45.8265 19.0095 45.819C18.9306 45.7694 18.8464 45.7287 18.7585 45.6977C18.6633 45.6672 18.5637 45.6529 18.4637 45.6556C18.3112 45.651 18.1629 45.7067 18.0511 45.8106C17.998 45.858 17.9556 45.9162 17.9265 45.9812C17.8975 46.0462 17.8825 46.1166 17.8826 46.1878C17.8815 46.2943 17.9076 46.3992 17.9584 46.4927Z" fill="white"/>
<path d="M13.0218 47.5034C13.0417 47.4958 13.0589 47.4824 13.0712 47.465C13.0835 47.4477 13.0903 47.427 13.0909 47.4057C13.0914 47.3769 13.0805 47.3491 13.0606 47.3283C13.0516 47.3178 13.0405 47.3093 13.028 47.3035C13.0155 47.2977 13.0019 47.2947 12.9881 47.2946C12.9775 47.2935 12.9668 47.2935 12.9561 47.2946C12.8428 47.3502 12.7186 47.3801 12.5923 47.3822C12.4909 47.3873 12.3906 47.3583 12.3077 47.2996C12.2719 47.2731 12.2432 47.2382 12.2241 47.1979C12.205 47.1577 12.1961 47.1134 12.1982 47.0689C12.1961 47.0162 12.2065 46.9637 12.2284 46.9157C12.2504 46.8677 12.2833 46.8256 12.3245 46.7926C12.4155 46.7212 12.529 46.6848 12.6445 46.6899H12.7405C12.7535 46.6905 12.7663 46.6883 12.7783 46.6833C12.7902 46.6784 12.8009 46.6708 12.8096 46.6613C12.8181 46.6523 12.8247 46.6417 12.829 46.6301C12.8334 46.6186 12.8354 46.6062 12.8349 46.5939C12.8356 46.5685 12.8265 46.5438 12.8096 46.5248C12.8012 46.515 12.7905 46.5072 12.7785 46.5022C12.7665 46.4973 12.7535 46.4952 12.7405 46.4962H12.6546C12.5493 46.5012 12.4452 46.4716 12.3582 46.412C12.321 46.3834 12.2914 46.3463 12.2717 46.3038C12.252 46.2612 12.243 46.2145 12.2454 46.1677C12.2436 46.1249 12.2519 46.0823 12.2698 46.0434C12.2877 46.0044 12.3145 45.9703 12.3481 45.9437C12.4199 45.89 12.5077 45.8621 12.5974 45.8646C12.7314 45.8638 12.8636 45.8949 12.9831 45.9555C12.9937 45.9573 13.0045 45.9573 13.0151 45.9555C13.0291 45.9551 13.0428 45.9513 13.0551 45.9446C13.0674 45.9379 13.0779 45.9283 13.0858 45.9168C13.1054 45.8937 13.1161 45.8645 13.1162 45.8342C13.1167 45.8188 13.1129 45.8035 13.1051 45.7901C13.0974 45.7767 13.086 45.7657 13.0724 45.7584C13.0083 45.7238 12.9397 45.6982 12.8686 45.6826C12.7792 45.6576 12.6868 45.6446 12.594 45.6439C12.4882 45.6422 12.3831 45.6605 12.2841 45.6978C12.1963 45.7322 12.1198 45.7906 12.0634 45.8662C12.0061 45.9499 11.9766 46.0495 11.9792 46.1509C11.9756 46.2467 12.0067 46.3406 12.0668 46.4153C12.1282 46.4878 12.2087 46.5415 12.2992 46.5703C12.1927 46.5926 12.0977 46.6523 12.0314 46.7387C11.9649 46.8294 11.9305 46.9396 11.9337 47.052C11.9326 47.1349 11.9511 47.2168 11.9876 47.2912C12.0211 47.3586 12.0709 47.4165 12.1325 47.4596C12.196 47.5006 12.2653 47.5318 12.338 47.5523C12.4172 47.5729 12.4987 47.5831 12.5805 47.5826C12.7319 47.5931 12.8835 47.5659 13.0218 47.5034Z" fill="white"/>
<path d="M24.8659 52.6879C24.9398 52.6551 25.0054 52.6062 25.0579 52.5447C25.109 52.4791 25.1493 52.4057 25.1775 52.3274C25.2094 52.2421 25.2315 52.1534 25.2432 52.063C25.2558 51.9653 25.262 51.8668 25.2617 51.7682C25.2617 51.1192 25.0399 50.7947 24.5964 50.7947C24.1551 50.7947 23.9328 51.1198 23.9328 51.7682C23.9326 51.8668 23.9388 51.9652 23.9513 52.063C23.9634 52.1526 23.9849 52.2406 24.0153 52.3258C24.0432 52.4045 24.0842 52.4779 24.1366 52.543C24.1883 52.6046 24.2534 52.6535 24.3269 52.6862C24.4996 52.757 24.6932 52.757 24.8659 52.6862V52.6879ZM24.465 52.5009C24.428 52.4849 24.3943 52.462 24.3656 52.4336C24.3368 52.403 24.3134 52.3677 24.2966 52.3291C24.2769 52.2892 24.2611 52.2474 24.2494 52.2045C24.2371 52.1575 24.2281 52.1096 24.2225 52.0613C24.2225 52.0074 24.2107 51.9586 24.209 51.9131C24.2073 51.8676 24.209 51.8205 24.209 51.7682C24.209 51.716 24.209 51.6638 24.209 51.6183C24.209 51.5728 24.209 51.5223 24.2225 51.4684C24.2284 51.42 24.238 51.3722 24.2511 51.3252C24.2622 51.2823 24.2775 51.2406 24.2966 51.2006C24.3146 51.1633 24.3384 51.1292 24.3673 51.0995C24.3953 51.0707 24.4292 51.0483 24.4667 51.0339C24.5076 51.0163 24.5519 51.0077 24.5964 51.0086C24.6415 51.0079 24.6862 51.0165 24.7278 51.0339C24.7641 51.0488 24.7973 51.0705 24.8255 51.0979C24.8538 51.1276 24.8771 51.1617 24.8945 51.1989C24.9157 51.2382 24.9315 51.2801 24.9417 51.3236C24.9542 51.3711 24.9632 51.4195 24.9686 51.4684C24.9686 51.5223 24.9804 51.5712 24.9838 51.6183C24.9872 51.6655 24.9838 51.7143 24.9838 51.7682C24.9838 51.8221 24.9838 51.8693 24.9838 51.9148C24.9838 51.9603 24.9838 52.0091 24.9703 52.0613C24.9649 52.1096 24.9559 52.1575 24.9434 52.2045C24.9317 52.248 24.9159 52.2903 24.8962 52.3308C24.8786 52.3684 24.8553 52.4031 24.8271 52.4336C24.7988 52.4624 24.765 52.4853 24.7278 52.5009C24.6434 52.5347 24.5493 52.5347 24.465 52.5009Z" fill="white"/>
<path d="M18.7301 52.0732C18.7594 52.0448 18.7827 52.0107 18.7987 51.9731C18.8146 51.9355 18.8228 51.8951 18.8228 51.8542C18.8226 51.8142 18.8143 51.7745 18.7983 51.7378C18.7824 51.701 18.7592 51.6679 18.7301 51.6403C18.6982 51.6091 18.6602 51.5848 18.6184 51.5689C18.5767 51.5529 18.5322 51.5457 18.4876 51.5477C18.3984 51.5449 18.3118 51.5776 18.2467 51.6386C18.2169 51.6661 18.1932 51.6994 18.177 51.7365C18.1607 51.7737 18.1524 51.8137 18.1524 51.8542C18.1521 51.895 18.1601 51.9353 18.1757 51.9729C18.1913 52.0105 18.2143 52.0446 18.2433 52.0732C18.3105 52.1318 18.3967 52.1642 18.4859 52.1642C18.5751 52.1642 18.6612 52.1318 18.7284 52.0732H18.7301Z" fill="white"/>
<path d="M6.50162 29.8919C6.52984 29.8645 6.55228 29.8318 6.5676 29.7956C6.58293 29.7595 6.59082 29.7206 6.59082 29.6813C6.59082 29.642 6.58293 29.6031 6.5676 29.567C6.55228 29.5308 6.52984 29.4981 6.50162 29.4708C6.43655 29.4139 6.35307 29.3826 6.26665 29.3826C6.18024 29.3826 6.09675 29.4139 6.03168 29.4708C6.0032 29.4981 5.98055 29.5309 5.96507 29.5673C5.94959 29.6036 5.94161 29.6427 5.94161 29.6822C5.94161 29.7216 5.94959 29.7607 5.96507 29.797C5.98055 29.8334 6.0032 29.8662 6.03168 29.8935C6.0967 29.9512 6.18059 29.983 6.26749 29.983C6.3544 29.983 6.43828 29.9512 6.5033 29.8935L6.50162 29.8919Z" fill="white"/>
<path d="M6.50154 31.6504C6.53003 31.6225 6.55261 31.5892 6.56795 31.5525C6.58329 31.5157 6.59107 31.4763 6.59081 31.4365C6.59084 31.3977 6.58293 31.3593 6.56758 31.3236C6.55222 31.288 6.52976 31.2559 6.50154 31.2293C6.47045 31.199 6.43347 31.1755 6.3929 31.1602C6.35234 31.1448 6.30906 31.1379 6.26573 31.14C6.22283 31.1382 6.17999 31.1449 6.13976 31.16C6.09954 31.175 6.06276 31.198 6.03161 31.2276C6.00272 31.2541 5.9797 31.2864 5.96404 31.3224C5.94837 31.3584 5.94041 31.3972 5.94065 31.4365C5.94 31.4763 5.9476 31.5159 5.96296 31.5527C5.97832 31.5895 6.00112 31.6228 6.02992 31.6504C6.09494 31.708 6.17883 31.7399 6.26573 31.7399C6.35264 31.7399 6.43653 31.708 6.50154 31.6504Z" fill="white"/>
<path d="M13.4308 51.706C13.4456 51.6918 13.4575 51.6749 13.4656 51.6561C13.4737 51.6372 13.4779 51.617 13.4779 51.5965C13.4787 51.5746 13.4746 51.5527 13.4659 51.5326C13.4571 51.5125 13.444 51.4946 13.4274 51.4803C13.3932 51.4513 13.3493 51.4362 13.3044 51.4382H11.4297C11.3851 51.4372 11.3415 51.4521 11.3068 51.4803C11.2902 51.4946 11.2771 51.5125 11.2683 51.5326C11.2596 51.5527 11.2554 51.5746 11.2563 51.5965C11.256 51.6176 11.2603 51.6385 11.2691 51.6577C11.2778 51.6769 11.2907 51.694 11.3068 51.7076C11.3413 51.7364 11.3849 51.7519 11.4297 51.7514H13.3145C13.3577 51.7517 13.3993 51.7354 13.4308 51.706ZM13.4308 52.57C13.4459 52.5565 13.4579 52.5399 13.4661 52.5213C13.4742 52.5027 13.4783 52.4825 13.4779 52.4622C13.4785 52.4406 13.4742 52.4191 13.4655 52.3993C13.4568 52.3795 13.4438 52.3619 13.4274 52.3477C13.3933 52.3183 13.3495 52.3026 13.3044 52.3039H11.423C11.3795 52.3027 11.3373 52.3184 11.3051 52.3477C11.289 52.362 11.2762 52.3796 11.2677 52.3995C11.2593 52.4193 11.2554 52.4407 11.2563 52.4622C11.2559 52.4831 11.2602 52.5038 11.2689 52.5228C11.2777 52.5417 11.2906 52.5585 11.3068 52.5717C11.3231 52.5866 11.3423 52.5982 11.3631 52.6057C11.3839 52.6132 11.406 52.6165 11.4281 52.6155H13.3145C13.3566 52.6181 13.398 52.6049 13.4308 52.5785V52.57Z" fill="white"/>
<path d="M6.41403 36.1154L6.94124 36.8228C6.95269 36.8408 6.96833 36.8557 6.98682 36.8662C7.0053 36.8768 7.02608 36.8827 7.04735 36.8835C7.07766 36.8832 7.10668 36.8711 7.1282 36.8498C7.13926 36.8398 7.14811 36.8275 7.1542 36.8139C7.16029 36.8003 7.16348 36.7855 7.16357 36.7706C7.16354 36.744 7.15398 36.7183 7.13662 36.6982L6.55047 35.9301L7.10293 35.1772C7.11656 35.1613 7.12377 35.1409 7.12315 35.1199C7.12248 35.103 7.11841 35.0864 7.11117 35.071C7.10394 35.0557 7.09369 35.042 7.08104 35.0307C7.05589 35.0059 7.02202 34.992 6.98672 34.9919C6.96617 34.9921 6.946 34.9975 6.92805 35.0075C6.9101 35.0175 6.89495 35.0318 6.88397 35.0492L6.37866 35.7347L5.87336 35.0509C5.86137 35.0327 5.84515 35.0177 5.82608 35.0071C5.80701 34.9965 5.78567 34.9907 5.76387 34.9902C5.73506 34.9898 5.70723 35.0007 5.68639 35.0206C5.67613 35.0296 5.66795 35.0408 5.66243 35.0533C5.6569 35.0658 5.65416 35.0793 5.65439 35.093C5.65395 35.1176 5.66231 35.1415 5.67797 35.1604L6.2456 35.9234L5.68134 36.6931C5.66686 36.7133 5.65865 36.7374 5.65776 36.7622C5.65782 36.7783 5.66167 36.7941 5.66898 36.8085C5.67629 36.8228 5.68687 36.8352 5.69987 36.8447C5.72599 36.8676 5.7595 36.8801 5.79419 36.8801C5.81382 36.8805 5.83322 36.8759 5.8506 36.8668C5.86798 36.8577 5.88276 36.8443 5.89357 36.8279L6.41403 36.1154Z" fill="white"/>
<path d="M6.45273 50.8047C6.48722 50.7671 6.50592 50.7176 6.50494 50.6666V49.7924H7.41449C7.46602 49.7933 7.51598 49.7747 7.5543 49.7402C7.573 49.7242 7.58798 49.7043 7.59816 49.6819C7.60835 49.6595 7.6135 49.6351 7.61325 49.6105C7.61371 49.586 7.60882 49.5617 7.59893 49.5393C7.58904 49.5169 7.57438 49.497 7.55598 49.4808C7.51689 49.4469 7.46619 49.4294 7.41449 49.432H6.50494V48.5494C6.50566 48.4989 6.48697 48.45 6.45273 48.4129C6.43602 48.3939 6.41523 48.3788 6.3919 48.3689C6.36857 48.359 6.3433 48.3545 6.31798 48.3557C6.29287 48.3549 6.26789 48.3595 6.24468 48.3691C6.22146 48.3787 6.20052 48.393 6.18323 48.4112C6.16576 48.4296 6.15215 48.4513 6.14318 48.475C6.13421 48.4988 6.13008 48.524 6.13101 48.5494V49.432H5.21978C5.16825 49.4305 5.11796 49.4479 5.07829 49.4808C5.05958 49.4968 5.04461 49.5167 5.03443 49.5391C5.02424 49.5615 5.01909 49.5859 5.01934 49.6105C5.01909 49.6351 5.02424 49.6595 5.03443 49.6819C5.04461 49.7043 5.05958 49.7242 5.07829 49.7402C5.11676 49.7755 5.16759 49.7943 5.21978 49.7924H6.13101V50.6666C6.13043 50.6914 6.13475 50.7161 6.14371 50.7392C6.15267 50.7623 6.1661 50.7834 6.18323 50.8014C6.19993 50.8204 6.22073 50.8355 6.24406 50.8454C6.26739 50.8553 6.29266 50.8598 6.31798 50.8586C6.34296 50.8596 6.36786 50.8553 6.39108 50.846C6.41429 50.8367 6.43529 50.8226 6.45273 50.8047Z" fill="white"/>
<path d="M31.7076 41.881C31.7201 41.8678 31.7299 41.8522 31.7363 41.8351C31.7426 41.818 31.7455 41.7998 31.7446 41.7816V41.1449H32.4066C32.4443 41.1461 32.481 41.1329 32.5093 41.1079C32.5224 41.0959 32.5328 41.0813 32.54 41.0651C32.5471 41.0488 32.5508 41.0313 32.5508 41.0136C32.5508 40.9958 32.5471 40.9783 32.54 40.9621C32.5328 40.9458 32.5224 40.9312 32.5093 40.9192C32.4807 40.8937 32.4432 40.8804 32.4049 40.8822H31.7429V40.2421C31.744 40.2049 31.7307 40.1687 31.7059 40.1411C31.693 40.1282 31.6778 40.1181 31.6611 40.1111C31.6443 40.1042 31.6263 40.1006 31.6082 40.1006C31.59 40.1006 31.5721 40.1042 31.5553 40.1111C31.5385 40.1181 31.5233 40.1282 31.5105 40.1411C31.4848 40.1684 31.4709 40.2047 31.4717 40.2421V40.8822H30.8081C30.7709 40.8813 30.7348 40.8945 30.7071 40.9192C30.693 40.9306 30.6818 40.945 30.6742 40.9613C30.6666 40.9777 30.6629 40.9955 30.6633 41.0136C30.6629 41.0314 30.6665 41.0491 30.6738 41.0654C30.681 41.0817 30.6918 41.0962 30.7054 41.1079C30.7336 41.1329 30.7704 41.1461 30.8081 41.1449H31.4717V41.7816C31.4715 41.818 31.4854 41.853 31.5105 41.8793C31.5226 41.8932 31.5376 41.9042 31.5545 41.9115C31.5715 41.9188 31.5898 41.9222 31.6082 41.9214C31.6267 41.9224 31.6452 41.9193 31.6624 41.9123C31.6795 41.9053 31.695 41.8946 31.7076 41.881Z" fill="white"/>
<path d="M7.34345 41.342C7.35564 41.3345 7.36569 41.324 7.37267 41.3114C7.37964 41.2989 7.3833 41.2848 7.3833 41.2705C7.3833 41.2561 7.37964 41.242 7.37267 41.2295C7.36569 41.217 7.35564 41.2064 7.34345 41.1989C7.30952 41.1767 7.26935 41.1661 7.22891 41.1686H5.41486C5.37494 41.1661 5.33532 41.1768 5.30201 41.1989C5.2901 41.207 5.28025 41.2177 5.27323 41.2303C5.26622 41.2429 5.26223 41.2569 5.26158 41.2713C5.26208 41.2855 5.26603 41.2993 5.27307 41.3117C5.28011 41.324 5.29004 41.3344 5.30201 41.342C5.33532 41.3642 5.37494 41.3748 5.41486 41.3724H7.22891C7.26935 41.3748 7.30952 41.3642 7.34345 41.342Z" fill="white"/>
<path d="M30.3704 42.2399C30.3794 42.2305 30.3864 42.2194 30.391 42.2072C30.3957 42.1951 30.3978 42.1821 30.3974 42.1691C30.3984 42.1424 30.3887 42.1163 30.3704 42.0967C30.3607 42.0865 30.3489 42.0785 30.3359 42.0732C30.3228 42.068 30.3087 42.0657 30.2946 42.0664H29.0684C29.0539 42.0654 29.0394 42.0678 29.0259 42.0733C29.0125 42.0789 29.0005 42.0874 28.991 42.0984C28.9731 42.1176 28.9635 42.143 28.964 42.1691C28.9635 42.1821 28.9656 42.1951 28.9702 42.2073C28.9748 42.2194 28.9819 42.2305 28.991 42.2399C29.0009 42.2502 29.013 42.2583 29.0264 42.2635C29.0397 42.2688 29.0541 42.271 29.0684 42.2702H30.2946C30.3087 42.2709 30.3228 42.2686 30.3359 42.2633C30.3489 42.2581 30.3607 42.2501 30.3704 42.2399Z" fill="white"/>
<path d="M31.0807 42.6053C31.093 42.6167 31.1082 42.6243 31.1246 42.6273C31.141 42.6303 31.1579 42.6285 31.1734 42.6222C31.197 42.6087 31.2071 42.5784 31.2054 42.5346C31.1994 42.4746 31.1792 42.4168 31.1464 42.3662L29.7989 40.0266C29.7739 39.9739 29.7356 39.9286 29.6878 39.8952C29.649 39.8699 29.6187 39.8649 29.5951 39.8784C29.5716 39.8918 29.5615 39.9222 29.5648 39.9659C29.57 40.0262 29.5903 40.0841 29.6238 40.1344L30.9713 42.474C30.9976 42.5253 31.035 42.5702 31.0807 42.6053Z" fill="white"/>
<path d="M7.34345 30.6465C7.35564 30.6389 7.36569 30.6284 7.37267 30.6159C7.37964 30.6033 7.3833 30.5892 7.3833 30.5749C7.3833 30.5606 7.37964 30.5465 7.37267 30.5339C7.36569 30.5214 7.35564 30.5109 7.34345 30.5033C7.30952 30.4812 7.26935 30.4705 7.22891 30.473H5.41486C5.37494 30.4705 5.33532 30.4812 5.30201 30.5033C5.2901 30.5114 5.28025 30.5222 5.27323 30.5348C5.26622 30.5473 5.26223 30.5614 5.26158 30.5757C5.26208 30.5899 5.26603 30.6038 5.27307 30.6161C5.28011 30.6284 5.29004 30.6389 5.30201 30.6465C5.33532 30.6686 5.37494 30.6793 5.41486 30.6768H7.22891C7.26935 30.6793 7.30952 30.6686 7.34345 30.6465Z" fill="white"/>
<path d="M25.5633 31.5713C25.5936 31.5493 25.6175 31.5197 25.6324 31.4854L26.2472 30.1025V31.5409C26.247 31.5549 26.2503 31.5686 26.2568 31.581C26.2632 31.5933 26.2727 31.6039 26.2842 31.6117C26.3096 31.6288 26.3396 31.6376 26.3701 31.637C26.4007 31.6379 26.4308 31.6291 26.456 31.6117C26.4679 31.6042 26.4776 31.5938 26.4841 31.5813C26.4906 31.5689 26.4937 31.555 26.4931 31.5409V29.9762C26.4931 29.9519 26.4878 29.9278 26.4776 29.9057C26.4675 29.8836 26.4526 29.864 26.4341 29.8482C26.3959 29.8162 26.3481 29.798 26.2983 29.7965C26.2485 29.795 26.1997 29.8102 26.1596 29.8397C26.1171 29.8688 26.0843 29.9099 26.0653 29.9577L25.4656 31.29L24.8643 29.9577C24.8464 29.9097 24.814 29.8685 24.7717 29.8397C24.732 29.8127 24.6846 29.7992 24.6366 29.8014C24.5887 29.8035 24.5427 29.8211 24.5055 29.8515C24.4867 29.8672 24.4716 29.8868 24.4611 29.9089C24.4506 29.931 24.4451 29.9551 24.4449 29.9795V31.5443C24.4443 31.5583 24.4473 31.5723 24.4539 31.5847C24.4604 31.5971 24.4701 31.6076 24.482 31.6151C24.5072 31.6309 24.5364 31.6393 24.5662 31.6393C24.596 31.6393 24.6252 31.6309 24.6504 31.6151C24.6623 31.6076 24.672 31.5971 24.6785 31.5847C24.685 31.5723 24.6881 31.5583 24.6874 31.5443V30.1059L25.3174 31.4854C25.3323 31.5197 25.3562 31.5493 25.3865 31.5713C25.4124 31.5908 25.4441 31.6014 25.4766 31.6014C25.5091 31.6014 25.5407 31.5908 25.5667 31.5713H25.5633Z" fill="white"/>
<path d="M23.938 31.6165C23.9499 31.6044 23.9589 31.5898 23.9644 31.5738C23.97 31.5578 23.9719 31.5407 23.97 31.5239V29.8934C23.9706 29.8764 23.9675 29.8594 23.9608 29.8436C23.9541 29.8279 23.944 29.8139 23.9313 29.8025C23.919 29.79 23.9043 29.7801 23.8881 29.7735C23.8719 29.7668 23.8545 29.7635 23.837 29.7637H23.2643C23.1973 29.7631 23.1303 29.7671 23.0638 29.7755C23.0025 29.7833 22.9421 29.7974 22.8836 29.8176C22.828 29.8357 22.7761 29.8637 22.7303 29.9002C22.6864 29.9381 22.6513 29.9853 22.6276 30.0383C22.6009 30.1017 22.5877 30.1699 22.5888 30.2387C22.5862 30.3408 22.6223 30.4401 22.6899 30.5166C22.7689 30.6002 22.8741 30.6542 22.988 30.6699C22.8895 30.6891 22.8006 30.7419 22.7367 30.8193C22.6728 30.8967 22.6378 30.994 22.6377 31.0944L22.5888 31.5087V31.5239C22.5882 31.5401 22.5912 31.5562 22.5976 31.5711C22.604 31.5859 22.6137 31.5992 22.6259 31.6098C22.6497 31.6319 22.681 31.6439 22.7135 31.6435C22.7482 31.644 22.782 31.6327 22.8095 31.6115C22.8238 31.6016 22.8357 31.5886 22.8442 31.5734C22.8527 31.5582 22.8575 31.5413 22.8583 31.5239L22.8988 31.155C22.9039 31.0919 22.9146 31.0293 22.9308 30.9681C22.9411 30.9262 22.9613 30.8875 22.9897 30.8552C23.0179 30.8253 23.0542 30.8042 23.0942 30.7946C23.1495 30.7831 23.206 30.7781 23.2626 30.7794H23.7039V31.5239C23.7028 31.5417 23.7059 31.5595 23.7129 31.5758C23.72 31.5922 23.7307 31.6067 23.7443 31.6182C23.7707 31.6404 23.8042 31.6524 23.8386 31.6519C23.8751 31.6535 23.9108 31.6408 23.938 31.6165ZM23.3249 30.5823C23.2744 30.5823 23.2272 30.5823 23.1868 30.5823C23.1445 30.5772 23.1028 30.5682 23.0621 30.5554C23.0243 30.544 22.9889 30.5257 22.9577 30.5015C22.9281 30.4765 22.905 30.4447 22.8903 30.4088C22.8715 30.3647 22.8623 30.317 22.8634 30.269C22.8625 30.2296 22.8682 30.1903 22.8802 30.1528C22.8908 30.122 22.9087 30.0942 22.9325 30.072C22.9547 30.0525 22.979 30.0356 23.0049 30.0214C23.0342 30.0078 23.0655 29.9987 23.0975 29.9945L23.1918 29.9827H23.7106V30.5908L23.3249 30.5823Z" fill="white"/>
<path d="M19.3869 31.571C19.4177 31.5496 19.4417 31.5198 19.456 31.4851L20.0724 30.1023V31.5407C20.0719 31.5545 20.0749 31.5682 20.0811 31.5806C20.0873 31.5929 20.0965 31.6036 20.1078 31.6114C20.1338 31.6286 20.1643 31.6374 20.1954 31.6367C20.2259 31.6371 20.2559 31.6283 20.2813 31.6114C20.2928 31.6036 20.3023 31.5931 20.3087 31.5807C20.3152 31.5684 20.3185 31.5546 20.3184 31.5407V29.9759C20.3181 29.9515 20.3126 29.9273 20.3021 29.9052C20.2917 29.8831 20.2765 29.8636 20.2577 29.8479C20.2182 29.8145 20.1679 29.7966 20.1162 29.7974C20.0717 29.7972 20.0282 29.8107 19.9916 29.8361C19.9492 29.8652 19.9163 29.9062 19.8973 29.954L19.2976 31.2864L18.698 29.954C18.6795 29.9059 18.6466 29.8647 18.6037 29.8361C18.564 29.8091 18.5166 29.7956 18.4686 29.7978C18.4207 29.7999 18.3747 29.8175 18.3375 29.8479C18.3188 29.8636 18.3036 29.8831 18.2931 29.9052C18.2826 29.9273 18.2771 29.9515 18.2769 29.9759V31.5407C18.2763 31.5547 18.2794 31.5687 18.2859 31.5811C18.2924 31.5935 18.3021 31.604 18.314 31.6114C18.3394 31.6283 18.3693 31.6371 18.3999 31.6367C18.431 31.6374 18.4615 31.6286 18.4875 31.6114C18.4988 31.6036 18.508 31.5929 18.5142 31.5806C18.5203 31.5682 18.5233 31.5545 18.5228 31.5407V30.1023L19.1393 31.4851C19.1536 31.5198 19.1776 31.5496 19.2084 31.571C19.234 31.5907 19.2653 31.6014 19.2976 31.6014C19.3299 31.6014 19.3613 31.5907 19.3869 31.571Z" fill="white"/>
<path d="M17.9535 31.0186C17.9633 31.0111 17.9711 31.0014 17.9764 30.9902C17.9817 30.9791 17.9842 30.9669 17.9838 30.9546C17.9843 30.9419 17.982 30.9293 17.977 30.9177C17.9721 30.906 17.9646 30.8956 17.9552 30.8872C17.9338 30.8685 17.9061 30.8588 17.8777 30.8602H17.2899C17.2615 30.8588 17.2337 30.8685 17.2124 30.8872C17.2029 30.8956 17.1955 30.906 17.1905 30.9177C17.1856 30.9293 17.1833 30.9419 17.1838 30.9546C17.1834 30.9669 17.1859 30.9791 17.1912 30.9902C17.1964 31.0014 17.2043 31.0111 17.2141 31.0186C17.2355 31.0358 17.2624 31.0448 17.2899 31.0438H17.8777C17.9052 31.0448 17.9321 31.0358 17.9535 31.0186Z" fill="white"/>
<path d="M13.2113 31.5711C13.2411 31.549 13.2643 31.5193 13.2786 31.4852L13.8951 30.1023V31.5407C13.8945 31.5548 13.8976 31.5687 13.9041 31.5811C13.9106 31.5936 13.9203 31.604 13.9322 31.6115C13.9574 31.6289 13.9875 31.6377 14.0181 31.6367C14.0486 31.6372 14.0785 31.6284 14.104 31.6115C14.1159 31.604 14.1256 31.5936 14.1321 31.5811C14.1386 31.5687 14.1417 31.5548 14.141 31.5407V29.976C14.1408 29.9515 14.1353 29.9274 14.1248 29.9053C14.1144 29.8832 14.0992 29.8636 14.0804 29.848C14.0415 29.8147 13.9918 29.7967 13.9406 29.7974C13.896 29.797 13.8524 29.8106 13.8159 29.8362C13.773 29.8651 13.7396 29.9062 13.7199 29.9541L13.1203 31.2864L12.5207 29.9541C12.5022 29.9065 12.4699 29.8654 12.428 29.8362C12.3881 29.809 12.3404 29.7955 12.2922 29.7976C12.2439 29.7997 12.1976 29.8174 12.1602 29.848C12.1414 29.8636 12.1263 29.8832 12.1158 29.9053C12.1053 29.9274 12.0998 29.9515 12.0996 29.976V31.5407C12.0994 31.5547 12.1027 31.5684 12.1092 31.5808C12.1157 31.5931 12.1251 31.6037 12.1366 31.6115C12.1621 31.6284 12.192 31.6372 12.2225 31.6367C12.2536 31.6374 12.2842 31.6286 12.3101 31.6115C12.3215 31.6036 12.3307 31.593 12.3368 31.5806C12.343 31.5683 12.346 31.5545 12.3455 31.5407V30.1023L12.962 31.4852C12.9769 31.5195 13.0007 31.5491 13.031 31.5711C13.0569 31.5903 13.0881 31.6009 13.1203 31.6014C13.1529 31.6003 13.1845 31.5898 13.2113 31.5711Z" fill="white"/>
<path d="M11.0496 31.6166C11.0586 31.6073 11.0657 31.5962 11.0703 31.584C11.075 31.5719 11.0771 31.5589 11.0765 31.5459V31.0877H11.5532C11.5799 31.0884 11.6058 31.0787 11.6256 31.0608C11.6358 31.0528 11.644 31.0425 11.6495 31.0308C11.6551 31.0192 11.6578 31.0064 11.6576 30.9934C11.6582 30.9804 11.6557 30.9674 11.6505 30.9554C11.6452 30.9434 11.6373 30.9328 11.6273 30.9244C11.6066 30.9071 11.5802 30.8981 11.5532 30.8991H11.0765V30.4376C11.0775 30.4108 11.0678 30.3848 11.0496 30.3652C11.0404 30.3558 11.0294 30.3484 11.0172 30.3435C11.005 30.3386 10.992 30.3362 10.9788 30.3365C10.9659 30.3359 10.9531 30.3382 10.9411 30.3431C10.9292 30.3481 10.9185 30.3556 10.9098 30.3652C10.9005 30.3747 10.8931 30.3861 10.8882 30.3985C10.8833 30.4109 10.8809 30.4242 10.8812 30.4376V30.8991H10.4045C10.3776 30.8987 10.3514 30.9076 10.3304 30.9244C10.3204 30.9328 10.3125 30.9434 10.3072 30.9554C10.302 30.9674 10.2995 30.9804 10.3001 30.9934C10.2999 31.0062 10.3025 31.0188 10.3078 31.0305C10.313 31.0421 10.3207 31.0525 10.3304 31.0608C10.3507 31.079 10.3772 31.0886 10.4045 31.0877H10.8812V31.5459C10.8813 31.5723 10.8915 31.5976 10.9098 31.6166C10.9187 31.6259 10.9294 31.6333 10.9413 31.6382C10.9532 31.6432 10.966 31.6456 10.9788 31.6453C10.992 31.6459 11.0052 31.6437 11.0174 31.6387C11.0296 31.6338 11.0406 31.6262 11.0496 31.6166Z" fill="white"/>
<path d="M13.3394 25.423L12.5814 26.4336L11.7392 24.9177H10.897" stroke="white" stroke-miterlimit="10"/>
</svg>
