<svg width="124" height="76" viewBox="0 0 124 76" fill="none" xmlns="http://www.w3.org/2000/svg">
<path d="M14.8838 18.3633L20.6426 19.0319L47.8516 66.0194C48.4188 67.3514 49.3655 68.487 50.5737 69.2848C51.7818 70.0825 53.198 70.5071 54.6457 70.5057V70.5057C56.2075 70.505 57.7289 70.0087 58.9905 69.0881C60.2522 68.1675 61.1891 66.8702 61.6664 65.3831L64.9017 47.3409L108.018 60.5086L92.4341 30.9271" stroke="#343232" stroke-width="3" stroke-linecap="round" stroke-linejoin="round"/>
<path d="M3 16.9827L14.8844 18.3631" stroke="#343232" stroke-width="5" stroke-linecap="round" stroke-linejoin="round"/>
<path d="M86.6863 51.029H40.3351L31.3086 18.2122H103.51L86.6863 51.029Z" fill="#343232" stroke="#343232" stroke-linecap="round" stroke-linejoin="round"/>
<path d="M101.202 22.72L103.51 18.2122H31.3086L32.5488 22.72H101.202Z" fill="white" stroke="#343232" stroke-miterlimit="10"/>
<path d="M115.562 68.0557C119.728 63.8905 119.728 57.1373 115.562 52.9721C111.397 48.8069 104.644 48.8069 100.479 52.9721C96.3136 57.1373 96.3136 63.8905 100.479 68.0557C104.644 72.221 111.397 72.2209 115.562 68.0557Z" fill="#343232" stroke="#343232" stroke-linecap="round" stroke-linejoin="round"/>
<path d="M113.993 60.5085C113.993 59.3268 113.642 58.1717 112.986 57.1892C112.329 56.2067 111.396 55.4409 110.304 54.9887C109.213 54.5365 108.011 54.4182 106.852 54.6487C105.693 54.8793 104.629 55.4483 103.793 56.2838C102.958 57.1194 102.389 58.184 102.158 59.3429C101.928 60.5018 102.046 61.7031 102.498 62.7948C102.95 63.8865 103.716 64.8196 104.699 65.4761C105.681 66.1326 106.836 66.483 108.018 66.483C109.603 66.483 111.122 65.8536 112.243 64.7331C113.363 63.6127 113.993 62.093 113.993 60.5085Z" fill="white" stroke="#343232" stroke-miterlimit="10"/>
<path d="M93.4375 15.7426C89.1237 12.1622 76.4413 1.85233 70.6933 0.159184C64.6001 -1.63102 43.5275 12.1945 38.2539 15.7426H93.4375Z" fill="#343232"/>
</svg>
