<svg width="90" height="78" viewBox="0 0 90 78" fill="none" xmlns="http://www.w3.org/2000/svg">
<path d="M44.414 9.34807L10.7021 8.47454L8.62073 1.16274C8.62073 1.16274 7.89818 0.569604 7.17563 1.64804C6.45308 2.72648 1.27658 9.19709 1.27658 9.19709C1.02506 9.76568 0.942683 10.3947 1.03933 11.0089C1.27658 11.7206 5.97855 58.4601 5.97855 58.4601L9.46191 57.4895L10.7776 14.2873L39.8199 19.054C39.8199 19.054 42.0523 12.6589 44.414 9.34807Z" fill="white" stroke="#343232" stroke-miterlimit="10"/>
<path d="M44.4144 9.34814C44.4144 9.34814 31.4732 23.26 33.1771 49.1424H86.4087L84.4567 34.7345L66.1233 31.812V11.3217L44.4144 9.34814Z" fill="white" stroke="#343232" stroke-miterlimit="10"/>
<path d="M44.4139 9.34814C44.4139 9.34814 32.9717 21.6531 33.0256 44.6346H56.8374L66.1443 31.812V11.3217L44.4139 9.34814Z" fill="#343232" stroke="#343232" stroke-miterlimit="10"/>
<path d="M46.1294 13.8992C43.0451 18.7413 40.2627 29.6443 40.2627 29.6443H56.3745V14.6541L46.1294 13.8992Z" fill="white" stroke="#343232" stroke-miterlimit="10"/>
<path d="M59.3721 14.1149V28.5767L64.6672 24.2629V13.8992L59.3721 14.1149Z" fill="white" stroke="#343232" stroke-miterlimit="10"/>
<path d="M84.6616 45.2168H75.3008V46.608H84.6616V45.2168Z" fill="#343232"/>
<path d="M84.6616 42.2297H75.3008V43.6209H84.6616V42.2297Z" fill="#343232"/>
<path d="M84.6616 39.2424H75.3008V40.6336H84.6616V39.2424Z" fill="#343232"/>
<path d="M65.8211 51.3533H47.2827L44.1553 52.1945L46.4416 54.8474H64.1387L65.8211 52.1945" fill="white"/>
<path d="M65.8211 51.3533H47.2827L44.1553 52.1945L46.4416 54.8474H64.1387L65.8211 52.1945" stroke="#343232" stroke-miterlimit="10"/>
<path d="M89.0508 48.3442H32.4868V53.4021H89.0508V48.3442Z" fill="white" stroke="#343232" stroke-miterlimit="10"/>
<path d="M77.3712 54.5237H43.6809C40.7863 54.5237 38.0104 55.6735 35.9636 57.7203C33.9169 59.767 32.7671 62.5429 32.7671 65.4375C32.7671 68.332 33.9169 71.1079 35.9636 73.1547C38.0104 75.2014 40.7863 76.3512 43.6809 76.3512H77.3712C80.2657 76.3512 83.0417 75.2014 85.0884 73.1547C87.1351 71.1079 88.285 68.332 88.285 65.4375C88.285 62.5429 87.1351 59.767 85.0884 57.7203C83.0417 55.6735 80.2657 54.5237 77.3712 54.5237Z" fill="#343232" stroke="#343232" stroke-miterlimit="10"/>
<path d="M77.3715 72.5338C81.2906 72.5338 84.4676 69.3567 84.4676 65.4377C84.4676 61.5186 81.2906 58.3416 77.3715 58.3416C73.4524 58.3416 70.2754 61.5186 70.2754 65.4377C70.2754 69.3567 73.4524 72.5338 77.3715 72.5338Z" fill="white" stroke="#343232" stroke-miterlimit="10"/>
<path d="M81.9547 65.4268C81.9547 64.5225 81.6865 63.6384 81.1841 62.8864C80.6817 62.1345 79.9675 61.5484 79.132 61.2023C78.2965 60.8562 77.3771 60.7657 76.4901 60.9421C75.6031 61.1185 74.7883 61.554 74.1489 62.1935C73.5094 62.833 73.0739 63.6478 72.8974 64.5348C72.721 65.4217 72.8115 66.3411 73.1576 67.1767C73.5037 68.0122 74.0898 68.7263 74.8418 69.2288C75.5937 69.7312 76.4778 69.9994 77.3822 69.9994C78.5949 69.9994 79.7579 69.5176 80.6154 68.6601C81.4729 67.8026 81.9547 66.6395 81.9547 65.4268Z" fill="#343232" stroke="#343232" stroke-miterlimit="10"/>
<path d="M43.6806 72.5338C47.5997 72.5338 50.7767 69.3567 50.7767 65.4377C50.7767 61.5186 47.5997 58.3416 43.6806 58.3416C39.7615 58.3416 36.5845 61.5186 36.5845 65.4377C36.5845 69.3567 39.7615 72.5338 43.6806 72.5338Z" fill="white" stroke="#343232" stroke-miterlimit="10"/>
<path d="M48.2535 65.4268C48.2535 64.5225 47.9854 63.6384 47.4829 62.8864C46.9805 62.1345 46.2663 61.5484 45.4308 61.2023C44.5953 60.8562 43.6759 60.7657 42.7889 60.9421C41.9019 61.1185 41.0872 61.554 40.4477 62.1935C39.8082 62.833 39.3727 63.6478 39.1963 64.5348C39.0198 65.4217 39.1104 66.3411 39.4565 67.1767C39.8025 68.0122 40.3886 68.7263 41.1406 69.2288C41.8925 69.7312 42.7766 69.9994 43.681 69.9994C44.8937 69.9994 46.0567 69.5176 46.9142 68.6601C47.7718 67.8026 48.2535 66.6395 48.2535 65.4268Z" fill="#343232" stroke="#343232" stroke-miterlimit="10"/>
<path d="M73.9311 70.1395L45.8162 69.3739C44.7605 69.343 43.7582 68.9026 43.0215 68.1458C42.2848 67.3889 41.8715 66.3751 41.8692 65.3189C41.866 64.2611 42.2775 63.2442 43.0154 62.4861C43.7532 61.7281 44.7587 61.2894 45.8162 61.264L73.9311 60.4983C74.473 60.4824 75.0125 60.5756 75.5177 60.7724C76.0228 60.9692 76.4833 61.2655 76.8716 61.6438C77.2599 62.0221 77.5682 62.4746 77.7782 62.9744C77.9882 63.4742 78.0955 64.0111 78.0939 64.5532V66.0846C78.0926 66.6259 77.9832 67.1615 77.7722 67.6599C77.5612 68.1584 77.2528 68.6097 76.8651 68.9874C76.4773 69.365 76.0181 69.6615 75.5143 69.8594C75.0105 70.0572 74.4722 70.1525 73.9311 70.1395Z" fill="white" stroke="#343232" stroke-miterlimit="10"/>
<path d="M7.44543 54.9661L1.42773 65.6749C1.42773 65.6749 9.37582 73.9789 15.6308 75.7907C21.8857 77.6024 28.9926 76.0279 28.9926 76.0279V75.0681L24.5387 74.8201L22.3818 59.6573L7.44543 54.9661Z" fill="#343232" stroke="#343232" stroke-miterlimit="10"/>
</svg>
