<svg width="90" height="78" viewBox="0 0 90 78" fill="none" xmlns="http://www.w3.org/2000/svg">
<path d="M84.0306 12.9314H44.5275C41.746 12.9314 39.4912 15.1862 39.4912 17.9677V72.3101C39.4912 75.0916 41.746 77.3464 44.5275 77.3464H84.0306C86.8121 77.3464 89.0669 75.0916 89.0669 72.3101V17.9677C89.0669 15.1862 86.8121 12.9314 84.0306 12.9314Z" fill="#343232"/>
<path d="M86.6944 18.4856H41.8638V74.2839H86.6944V18.4856Z" fill="white" stroke="#343232" stroke-linecap="round" stroke-linejoin="round"/>
<path d="M55.1714 25.3552H73.3754" stroke="#343232" stroke-linecap="round" stroke-linejoin="round"/>
<path d="M46.4907 33.1953H82.0683" stroke="#343232" stroke-linecap="round" stroke-linejoin="round"/>
<path d="M46.4907 39.3533H82.0683" stroke="#343232" stroke-linecap="round" stroke-linejoin="round"/>
<path d="M46.4907 45.522H82.0683" stroke="#343232" stroke-linecap="round" stroke-linejoin="round"/>
<path d="M46.4907 51.6799H82.0683" stroke="#343232" stroke-linecap="round" stroke-linejoin="round"/>
<path d="M46.4907 57.8484H82.0683" stroke="#343232" stroke-linecap="round" stroke-linejoin="round"/>
<path d="M46.4907 64.0063H82.0683" stroke="#343232" stroke-linecap="round" stroke-linejoin="round"/>
<path d="M71.6503 12.0473C71.3618 12.0443 71.0795 11.9632 70.8335 11.8126C70.5874 11.6619 70.3868 11.4474 70.2529 11.1919C70.1191 10.9363 70.057 10.6493 70.0733 10.3612C70.0895 10.0732 70.1836 9.79492 70.3454 9.55608C70.8755 8.70496 71.1672 7.72709 71.1901 6.72465C71.2129 5.72222 70.966 4.73204 70.4753 3.85766C69.9845 2.98327 69.2679 2.25676 68.4003 1.7541C67.5327 1.25144 66.546 0.991077 65.5433 1.00023C64.5407 1.00939 63.5589 1.28774 62.7006 1.80616C61.8423 2.32458 61.1391 3.06403 60.6644 3.94724C60.1896 4.83045 59.9609 5.82496 60.0021 6.82681C60.0432 7.82866 60.3527 8.80107 60.8983 9.64237C61.0478 9.88312 61.1296 10.1597 61.135 10.4431C61.1404 10.7265 61.0692 11.006 60.929 11.2523C60.7887 11.4986 60.5846 11.7024 60.3381 11.8423C60.0917 11.9822 59.812 12.0531 59.5287 12.0473H49.8228L52.4541 19.5963H78.7572L81.3886 12.0473H71.6503ZM65.5895 8.81199C65.2008 8.81198 64.8209 8.69659 64.4979 8.48044C64.1749 8.26429 63.9234 7.9571 63.7751 7.59782C63.6269 7.23855 63.5887 6.84335 63.6653 6.46232C63.7419 6.08129 63.9299 5.7316 64.2055 5.45754C64.4811 5.18348 64.8318 4.99737 65.2132 4.92286C65.5947 4.84835 65.9897 4.88876 66.3481 5.03897C66.7066 5.18918 67.0124 5.44245 67.2267 5.76664C67.4411 6.09083 67.5544 6.47134 67.5522 6.85999C67.5522 7.38054 67.3455 7.8798 66.9774 8.24789C66.6093 8.61597 66.1101 8.82275 65.5895 8.82275V8.81199Z" fill="white" stroke="#343232" stroke-linecap="round" stroke-linejoin="round"/>
<path d="M45.9143 55.4024C54.3669 46.9498 54.3669 33.2455 45.9143 24.7929C37.4617 16.3403 23.7574 16.3403 15.3048 24.7929C6.85218 33.2455 6.85218 46.9498 15.3048 55.4024C23.7574 63.855 37.4617 63.855 45.9143 55.4024Z" fill="#343232"/>
<path d="M30.1841 57.9993V54.5375C29.1714 54.5546 28.1667 54.3557 27.2369 53.954C26.3071 53.5523 25.4736 52.9572 24.7919 52.2081C23.584 50.7702 22.937 48.5594 22.8507 45.5757L28.2429 44.7669C28.2433 45.7571 28.3518 46.7443 28.5664 47.711C28.6734 48.3163 28.9588 48.8759 29.386 49.3179C29.7449 49.6456 30.2158 49.8231 30.7017 49.814C30.9568 49.8469 31.2159 49.8003 31.4436 49.6807C31.6713 49.561 31.8566 49.3741 31.9743 49.1453C32.1711 48.704 32.2739 48.2266 32.2762 47.7434C32.3094 46.6965 32.0194 45.6648 31.4458 44.7885C30.7942 43.8658 30.0175 43.0383 29.138 42.3296L26.6576 40.1727C25.9783 39.5694 25.3406 38.9209 24.7488 38.2316C24.1636 37.5424 23.6938 36.763 23.3576 35.9237C22.9901 34.9193 22.8145 33.8547 22.8399 32.7855C22.7857 31.8329 22.927 30.8794 23.2553 29.9835C23.5836 29.0877 24.0919 28.2686 24.7488 27.5766C26.1383 26.2604 27.9588 25.4939 29.8713 25.4197V22.0981H31.6615V25.3335C32.8029 25.3518 33.9191 25.6718 34.8968 26.2609C35.6733 26.7711 36.3049 27.4731 36.7302 28.2992C37.14 29.0991 37.4237 29.9576 37.5714 30.8443C37.7151 31.675 37.8015 32.5145 37.8302 33.357L32.438 34.0149C32.438 33.1737 32.3625 32.4404 32.287 31.858C32.2441 31.3393 32.0737 30.8391 31.7909 30.4021C31.6522 30.2288 31.4711 30.0942 31.2653 30.0111C31.0594 29.928 30.8356 29.8992 30.6154 29.9276C30.3527 29.9161 30.092 29.9788 29.8631 30.1085C29.6343 30.2382 29.4465 30.4296 29.3213 30.6609C29.0538 31.1079 28.9087 31.6175 28.9007 32.1384C28.8544 33.1149 29.1606 34.0756 29.7635 34.8453C30.3386 35.5392 30.966 36.1881 31.64 36.7864L34.0125 38.8571C34.7858 39.5737 35.5066 40.345 36.1694 41.1649C36.8387 41.9869 37.377 42.9072 37.7655 43.8934C38.1799 45.0033 38.3812 46.1814 38.3586 47.3659C38.3716 48.5425 38.1094 49.7058 37.5929 50.763C37.0876 51.776 36.3252 52.6387 35.3821 53.265C34.3528 53.9305 33.1745 54.3307 31.9527 54.4297V57.9346L30.1841 57.9993Z" fill="white"/>
</svg>
