<svg width="56" height="50" viewBox="0 0 56 50" fill="none" xmlns="http://www.w3.org/2000/svg">
<path d="M48.7017 16.3926H53.3334C54.0406 16.3926 54.7187 16.6735 55.2188 17.1735C55.7188 17.6735 55.9997 18.3517 55.9997 19.0589V25.2614C55.9997 25.9685 55.7188 26.6467 55.2188 27.1467C54.7187 27.6468 54.0406 27.9277 53.3334 27.9277H48.7017V16.3926Z" fill="#343232"/>
<path d="M26.8644 44.9321C40.2642 44.9321 51.1268 34.8737 51.1268 22.4661C51.1268 10.0584 40.2642 0 26.8644 0C13.4647 0 2.60205 10.0584 2.60205 22.4661C2.60205 34.8737 13.4647 44.9321 26.8644 44.9321Z" fill="#343232"/>
<path d="M35.2414 4.65611C30.1282 2.61174 24.4437 2.50859 19.2598 4.36612" stroke="white" stroke-width="2" stroke-miterlimit="10"/>
<path d="M7.29004 27.9355H2.66634C1.95919 27.9355 1.28101 27.6546 0.780989 27.1546C0.280964 26.6546 5.14984e-05 25.9764 5.14984e-05 25.2693L5.14984e-05 19.0667C5.14984e-05 18.3596 0.280964 17.6814 0.780989 17.1814C1.28101 16.6814 1.95919 16.4005 2.66634 16.4005H7.29004L7.29004 27.9355Z" fill="#343232"/>
<path d="M15.7158 40.679H24.8182V48.1864C24.8182 48.4492 24.7138 48.7012 24.528 48.887C24.3422 49.0728 24.0902 49.1772 23.8274 49.1772H16.7066C16.4438 49.1772 16.1918 49.0728 16.006 48.887C15.8202 48.7012 15.7158 48.4492 15.7158 48.1864V40.679Z" fill="#343232"/>
<path d="M29.0713 40.679H38.1818V48.1864C38.184 48.4451 38.085 48.6944 37.9059 48.881C37.7268 49.0677 37.4817 49.1769 37.2232 49.1853H30.0621C29.7993 49.1853 29.5473 49.0809 29.3615 48.8951C29.1757 48.7093 29.0713 48.4573 29.0713 48.1945V40.687V40.679Z" fill="#343232"/>
<path d="M40.1953 4.85735C40.1953 4.85735 51.1263 -1.82043 51.1263 1.82053C51.1263 5.4615 48.7097 16.3924 48.7097 16.3924" fill="#343232"/>
<path d="M38.2831 33.257C44.2663 27.2737 44.2663 17.573 38.2831 11.5897C32.2999 5.60648 22.5991 5.60647 16.6158 11.5897C10.6326 17.573 10.6326 27.2737 16.6159 33.257C22.5991 39.2402 32.2998 39.2402 38.2831 33.257Z" fill="white"/>
<path d="M27.1454 35.0967V32.6801C26.427 32.6919 25.7143 32.5507 25.0547 32.266C24.395 31.9813 23.8034 31.5596 23.3192 31.0288C22.4653 30.0138 22.0062 28.443 21.9417 26.3326L25.7357 25.7606C25.7339 26.4508 25.8041 27.1392 25.9452 27.8147C26.0288 28.2417 26.2328 28.6358 26.5332 28.9505C26.7855 29.1815 27.1176 29.3057 27.4596 29.2969C27.6409 29.3215 27.8253 29.2899 27.9881 29.2063C28.1509 29.1228 28.2841 28.9913 28.3698 28.8297C28.5077 28.5175 28.579 28.1801 28.5792 27.8389C28.606 27.0966 28.4004 26.3644 27.9912 25.7445C27.5334 25.1007 26.9916 24.5209 26.3802 24.0207L24.6161 22.5063C24.1374 22.0777 23.688 21.6175 23.2708 21.1289C22.8551 20.6509 22.5229 20.1062 22.2881 19.5178C22.024 18.8099 21.8982 18.0579 21.9176 17.3026C21.8794 16.6267 21.9798 15.95 22.2125 15.3142C22.4452 14.6784 22.8053 14.0969 23.2708 13.6053C24.2582 12.6778 25.5498 12.1423 26.9038 12.0989V9.73877H28.1604V12.0748C28.9756 12.0805 29.7743 12.3059 30.4722 12.7273C31.0214 13.0883 31.4681 13.5849 31.7691 14.1691C32.0609 14.7358 32.262 15.3446 32.3652 15.9735C32.4658 16.5595 32.5277 17.1515 32.5505 17.7457L28.7081 18.2209C28.7081 17.6248 28.6517 17.1013 28.5954 16.6582C28.5687 16.2908 28.4496 15.9361 28.249 15.6271C28.154 15.508 28.0301 15.4152 27.8891 15.3574C27.7482 15.2996 27.5947 15.2787 27.4435 15.2969C27.2574 15.2878 27.0726 15.3313 26.9101 15.4225C26.7477 15.5137 26.6143 15.6488 26.5252 15.8124C26.338 16.1273 26.2353 16.4853 26.2271 16.8515C26.1931 17.546 26.4104 18.2295 26.8393 18.7767C27.2482 19.2651 27.6896 19.7252 28.1604 20.1542L29.852 21.6122C30.4015 22.1155 30.9181 22.6536 31.3986 23.2232C31.8695 23.8073 32.2497 24.4591 32.5263 25.1565C32.8194 25.9417 32.9616 26.7753 32.9452 27.6133C32.9592 28.4502 32.7742 29.2785 32.4055 30.0299C32.0497 30.7479 31.5106 31.3592 30.8428 31.8021C30.1164 32.2666 29.286 32.5434 28.4262 32.6076V35.0886L27.1454 35.0967Z" fill="#343232"/>
</svg>
