<svg width="75" height="78" viewBox="0 0 75 78" fill="none" xmlns="http://www.w3.org/2000/svg">
<path d="M69.5477 12.9314H30.0446C27.2631 12.9314 25.0083 15.1862 25.0083 17.9677V72.3101C25.0083 75.0916 27.2631 77.3464 30.0446 77.3464H69.5477C72.3292 77.3464 74.584 75.0916 74.584 72.3101V17.9677C74.584 15.1862 72.3292 12.9314 69.5477 12.9314Z" fill="#343232"/>
<path d="M72.2115 18.4856H27.3809V74.2839H72.2115V18.4856Z" fill="white" stroke="#343232" stroke-linecap="round" stroke-linejoin="round"/>
<path d="M40.6895 25.3552H58.8935" stroke="#343232" stroke-linecap="round" stroke-linejoin="round"/>
<path d="M32.0078 33.1953H67.5746" stroke="#343232" stroke-linecap="round" stroke-linejoin="round"/>
<path d="M32.0078 39.3533H67.5746" stroke="#343232" stroke-linecap="round" stroke-linejoin="round"/>
<path d="M32.0078 45.522H67.5746" stroke="#343232" stroke-linecap="round" stroke-linejoin="round"/>
<path d="M32.0078 51.6799H67.5746" stroke="#343232" stroke-linecap="round" stroke-linejoin="round"/>
<path d="M32.0078 57.8484H67.5746" stroke="#343232" stroke-linecap="round" stroke-linejoin="round"/>
<path d="M32.0078 64.0063H67.5746" stroke="#343232" stroke-linecap="round" stroke-linejoin="round"/>
<path d="M57.1566 12.0473C56.8681 12.0443 56.5858 11.9632 56.3398 11.8126C56.0937 11.6619 55.8931 11.4474 55.7592 11.1919C55.6254 10.9363 55.5633 10.6493 55.5796 10.3612C55.5959 10.0732 55.6899 9.79492 55.8517 9.55608C56.3818 8.70496 56.6735 7.72709 56.6964 6.72465C56.7192 5.72222 56.4724 4.73204 55.9816 3.85766C55.4908 2.98327 54.7742 2.25676 53.9066 1.7541C53.039 1.25144 52.0523 0.991077 51.0496 1.00023C50.047 1.00939 49.0652 1.28774 48.2069 1.80616C47.3486 2.32458 46.6454 3.06403 46.1706 3.94724C45.6959 4.83045 45.4672 5.82496 45.5084 6.82681C45.5495 7.82866 45.8591 8.80107 46.4046 9.64237C46.5536 9.88234 46.6353 10.158 46.6411 10.4404C46.6469 10.7228 46.5767 11.0015 46.4378 11.2475C46.2988 11.4934 46.0963 11.6974 45.8514 11.8381C45.6065 11.9788 45.3282 12.0511 45.0458 12.0473H35.3398L37.9712 19.5963H64.2851L66.9165 12.0473H57.1566ZM51.0958 8.81199C50.7071 8.81198 50.3272 8.69659 50.0042 8.48044C49.6812 8.26429 49.4297 7.9571 49.2814 7.59782C49.1332 7.23855 49.095 6.84335 49.1716 6.46232C49.2482 6.08129 49.4362 5.7316 49.7118 5.45754C49.9873 5.18348 50.3381 4.99737 50.7195 4.92286C51.101 4.84835 51.496 4.88876 51.8544 5.03897C52.2129 5.18918 52.5187 5.44245 52.733 5.76664C52.9474 6.09083 53.0607 6.47134 53.0585 6.85999C53.06 7.11814 53.0102 7.37402 52.9121 7.6128C52.8139 7.85158 52.6694 8.06853 52.4869 8.25108C52.3043 8.43362 52.0874 8.57813 51.8486 8.67626C51.6098 8.77439 51.3539 8.82418 51.0958 8.82275V8.81199Z" fill="white" stroke="#343232" stroke-linecap="round" stroke-linejoin="round"/>
<path d="M35.1674 30.1112C28.4689 28.1302 22.5184 24.1857 18.085 18.7876C13.6516 24.1857 7.70115 28.1302 1.00259 30.1112C1.00259 30.1112 0.387881 48.326 18.085 65.0202C35.7498 48.326 35.1674 30.1112 35.1674 30.1112Z" fill="white" stroke="#343232" stroke-linecap="round" stroke-linejoin="round"/>
<path d="M32.1372 32.1816C26.6127 30.5443 21.7064 27.2872 18.0529 22.8315C14.3942 27.2865 9.48477 30.5432 3.9577 32.1816C3.9577 32.1816 3.45085 47.2042 18.0529 60.9758C32.6549 47.2042 32.1372 32.1816 32.1372 32.1816Z" fill="#343232" stroke="#343232" stroke-miterlimit="10"/>
<path d="M32.1371 32.1816C26.6125 30.5443 21.7062 27.2872 18.0527 22.8315V60.9758C32.6548 47.2042 32.1371 32.1816 32.1371 32.1816Z" fill="white" stroke="#343232" stroke-linecap="round" stroke-linejoin="round"/>
</svg>
