<svg width="109" height="65" viewBox="0 0 109 65" fill="none" xmlns="http://www.w3.org/2000/svg">
<path d="M73.8376 42.2934L58.0062 31.1963L53.5954 31.5198L49.1954 31.1963L33.3639 42.2934L30.8296 52.916H53.5954H76.3612L73.8376 42.2934Z" fill="white" stroke="#343232" stroke-miterlimit="10"/>
<path d="M38.7236 52.916H53.5953H68.7796V38.7453L58.0061 31.1963L53.5953 31.5198L49.1952 31.1963L38.7236 38.5404V52.916Z" fill="white" stroke="#343232" stroke-miterlimit="10"/>
<path d="M58.4376 32.7168L53.5522 45.0757L48.311 32.7168V23.5393H58.4376V32.7168Z" fill="#343232" stroke="#343232" stroke-miterlimit="10"/>
<path d="M48.9478 3.12452L51.3419 5.11963V1H54.8145V5.24904L56.7341 3.28628C57.6241 3.60136 58.4633 4.04459 59.2253 4.60198C60.789 5.68041 61.7596 8.43042 62.1479 10.2961C62.2234 10.6412 62.6655 10.4687 62.6655 10.4687V13.0785C59.1172 13.7971 55.501 14.1262 51.8812 14.0599C49.1502 13.9442 46.4426 13.5062 43.8145 12.755V10.1451H44.7743C44.7743 10.1451 44.6449 3.9657 48.9478 3.12452Z" fill="white" stroke="#343232" stroke-miterlimit="10"/>
<path d="M51.7839 15.5158C49.5151 15.4429 47.26 15.1358 45.0544 14.5991C44.9456 15.1718 44.8843 15.7526 44.8711 16.3354C44.8711 26.2247 48.5162 28.9423 53.0133 28.9423C57.5104 28.9423 61.1555 25.4482 61.1555 16.3354C61.1522 15.8303 61.1161 15.326 61.0476 14.8256C57.9877 15.3417 54.8865 15.5727 51.7839 15.5158Z" fill="#343232" stroke="#343232" stroke-miterlimit="10"/>
<path d="M48.311 29.8699L44.8169 33.364L51.4601 40.9562L53.3689 33.0297L48.311 29.8699Z" fill="white" stroke="#343232" stroke-miterlimit="10"/>
<path d="M59.0633 29.8699L62.5466 33.364L55.9035 40.9562L53.9946 33.0297L59.0633 29.8699Z" fill="white" stroke="#343232" stroke-miterlimit="10"/>
<path d="M104.854 53.11L89.033 42.0129L84.6222 42.3257L80.2114 42.0129L64.38 53.11L61.8564 63.7326H84.6222H107.388L104.854 53.11Z" fill="white" stroke="#343232" stroke-miterlimit="10"/>
<path d="M69.7505 63.7326H84.6221H99.7957V49.562L89.0329 42.0129L84.6221 42.3257L80.2113 42.0129L69.7505 49.3463V63.7326Z" fill="white" stroke="#343232" stroke-miterlimit="10"/>
<path d="M89.4537 43.5335L84.5683 55.8923L79.3271 43.5335V34.356H89.4537V43.5335Z" fill="#343232" stroke="#343232" stroke-miterlimit="10"/>
<path d="M79.9629 13.9304L82.3355 15.9363V11.8167H85.8512V16.0549L87.7492 14.0922C88.6327 14.4143 89.4674 14.8571 90.2296 15.4078C91.8041 16.4863 92.7639 19.2363 93.163 21.102C93.2277 21.4579 93.6806 21.2745 93.6806 21.2745V23.8844C90.1331 24.6089 86.5163 24.938 82.8963 24.8657C80.1682 24.7568 77.4633 24.3187 74.8403 23.5608V20.951H75.8001C75.8001 20.951 75.6599 14.7823 79.9629 13.9304Z" fill="white" stroke="#343232" stroke-miterlimit="10"/>
<path d="M82.7993 26.3326C80.5296 26.2401 78.275 25.9186 76.0699 25.3728C75.9795 25.9617 75.9326 26.5564 75.9297 27.1522C75.9297 37.0415 79.5748 39.7484 84.0719 39.7484C88.569 39.7484 92.2141 36.265 92.2141 27.1522C92.2134 26.6467 92.1737 26.1419 92.0954 25.6424C89.025 26.1615 85.9128 26.3926 82.7993 26.3326Z" fill="#343232" stroke="#343232" stroke-miterlimit="10"/>
<path d="M79.3271 40.6758L75.8438 44.1807L82.4869 51.7729L84.3958 43.8464L79.3271 40.6758Z" fill="white" stroke="#343232" stroke-miterlimit="10"/>
<path d="M90.0789 40.6758L93.573 44.1807L86.9298 51.7729L85.021 43.8464L90.0789 40.6758Z" fill="white" stroke="#343232" stroke-miterlimit="10"/>
<path d="M44.008 53.11L28.1766 42.0129L23.7658 42.3257L19.3658 42.0129L3.53432 53.11L1 63.7326H23.7658H46.5316L44.008 53.11Z" fill="white" stroke="#343232" stroke-miterlimit="10"/>
<path d="M8.89404 63.7326H23.7657H38.9501V49.562L28.1765 42.0129L23.7657 42.3257L19.3657 42.0129L8.89404 49.3463V63.7326Z" fill="white" stroke="#343232" stroke-miterlimit="10"/>
<path d="M28.608 43.5335L23.7226 55.8923L18.4814 43.5335V34.356H28.608V43.5335Z" fill="#343232" stroke="#343232" stroke-miterlimit="10"/>
<path d="M19.1179 13.9304L21.4797 15.9363V11.8167H24.9631V16.0549L26.8503 14.0922C27.7378 14.4129 28.5763 14.8557 29.3415 15.4078C30.9052 16.4863 31.8758 19.2363 32.2641 21.102C32.3396 21.4579 32.7817 21.2745 32.7817 21.2745V23.8844C29.2343 24.6092 25.6174 24.9384 21.9974 24.8657C19.2658 24.7562 16.5574 24.3181 13.9307 23.5608V20.951H14.8905C14.8905 20.951 14.815 14.7823 19.1179 13.9304Z" fill="white" stroke="#343232" stroke-miterlimit="10"/>
<path d="M21.9542 26.3323C19.6847 26.2443 17.43 25.9263 15.2247 25.3833C15.1253 25.9712 15.0748 26.5664 15.0737 27.1627C15.0737 37.052 18.7188 39.7589 23.2159 39.7589C27.713 39.7589 31.3581 36.2755 31.3581 27.1627C31.3556 26.6576 31.3195 26.1532 31.2503 25.6529C28.1794 26.1674 25.0672 26.3948 21.9542 26.3323Z" fill="#343232" stroke="#343232" stroke-miterlimit="10"/>
<path d="M18.4814 40.6758L14.9873 44.1807L21.6413 51.7729L23.5393 43.8464L18.4814 40.6758Z" fill="white" stroke="#343232" stroke-miterlimit="10"/>
<path d="M29.2337 40.6758L32.717 44.1807L26.0739 51.7729L24.165 43.8464L29.2337 40.6758Z" fill="white" stroke="#343232" stroke-miterlimit="10"/>
</svg>
